<svg width="920" height="270" viewBox="0 0 920 270" fill="none" xmlns="http://www.w3.org/2000/svg" role="img" aria-labelledby="title desc">
  <title id="title">luan-thnh / contribution activity</title>
  <desc id="desc">GitHub contribution calendar card</desc>
  
  <defs>
    <pattern id="alive-grid" width="28" height="28" patternUnits="userSpaceOnUse">
      <path d="M28 0H0V28" stroke="#F3F0EA" stroke-opacity=".035"/>
    </pattern>
    <linearGradient id="alive-accent" x1="0" y1="0" x2="1" y2="0">
      <stop stop-color="#C8FF4D"/>
      <stop offset="1" stop-color="#F3F0EA" stop-opacity=".22"/>
    </linearGradient>
    <radialGradient id="alive-aura">
      <stop stop-color="#C8FF4D" stop-opacity=".28"/>
      <stop offset="1" stop-color="#C8FF4D" stop-opacity="0"/>
    </radialGradient>
    <filter id="alive-glow" x="-80%" y="-80%" width="260%" height="260%">
      <feGaussianBlur stdDeviation="5" result="blur"/>
      <feMerge><feMergeNode in="blur"/><feMergeNode in="SourceGraphic"/></feMerge>
    </filter>
    <style>
      .display { font-family: Arial Narrow, Helvetica Neue, Arial, sans-serif; }
      .mono { font-family: ui-monospace, SFMono-Regular, Menlo, Consolas, monospace; }
      .label { fill:#94978F; font-size:11px; letter-spacing:1.45px; }
      .micro { fill:#565B56; font-size:9px; letter-spacing:1.15px; }
      .section { fill:#F3F0EA; font-size:14px; font-weight:700; letter-spacing:2.3px; }
      .accent { fill:#C8FF4D; }
      .text { fill:#F3F0EA; }
      
    </style>
  </defs>
  <rect width="920" height="270" fill="#090B0E"/>
  <rect width="920" height="270" fill="url(#alive-grid)"/>
  
    
  <rect x="14" y="14" width="892" height="242" fill="none" stroke="#2B302D"/>
  <path d="M14 32V14H32 M888 14H906V32 M14 238V256H32 M888 256H906V238" stroke="#C8FF4D" stroke-width="1.5"/>

    
  <text x="36" y="48" class="mono section">05 / CONTRIBUTION TRACE</text>
  <line x1="36" y1="70" x2="884" y2="70" stroke="#2B302D"/>
  <circle cx="750" cy="43" r="4" fill="#C8FF4D" filter="url(#alive-glow)" class="pulse"/>
  <text x="764" y="47" class="mono micro">LIVE / GITHUB API</text>

    <text x="38" y="118" class="display text" font-size="48" font-weight="800">454</text>
    <text x="40" y="142" class="mono micro">SIGNALS / 12 MONTHS</text>
    <text x="40" y="187" class="mono label">CURRENT 4D</text>
    <text x="40" y="213" class="mono label">LONGEST 18D</text>
    <text x="190" y="100" class="mono micro">JUL</text><text x="229" y="100" class="mono micro">AUG</text><text x="281" y="100" class="mono micro">SEP</text><text x="333" y="100" class="mono micro">OCT</text><text x="398" y="100" class="mono micro">NOV</text><text x="450" y="100" class="mono micro">DEC</text><text x="502" y="100" class="mono micro">JAN</text><text x="567" y="100" class="mono micro">FEB</text><text x="619" y="100" class="mono micro">MAR</text><text x="671" y="100" class="mono micro">APR</text><text x="736" y="100" class="mono micro">MAY</text><text x="788" y="100" class="mono micro">JUN</text><text x="840" y="100" class="mono micro">JUL</text>
    <rect x="190" y="170" width="10" height="10" fill="#14181A"><title>2025-07-17: 0 contributions</title></rect><rect x="190" y="183" width="10" height="10" fill="#C8FF4DA6"><title>2025-07-18: 9 contributions</title></rect><rect x="190" y="196" width="10" height="10" fill="#14181A"><title>2025-07-19: 0 contributions</title></rect><rect x="190" y="118" width="10" height="10" fill="#14181A"><title>2025-07-20: 0 contributions</title></rect><rect x="190" y="131" width="10" height="10" fill="#C8FF4D"><title>2025-07-21: 11 contributions</title></rect><rect x="190" y="144" width="10" height="10" fill="#14181A"><title>2025-07-22: 0 contributions</title></rect><rect x="190" y="157" width="10" height="10" fill="#14181A"><title>2025-07-23: 0 contributions</title></rect><rect x="203" y="170" width="10" height="10" fill="#C8FF4D"><title>2025-07-24: 12 contributions</title></rect><rect x="203" y="183" width="10" height="10" fill="#C8FF4D"><title>2025-07-25: 12 contributions</title></rect><rect x="203" y="196" width="10" height="10" fill="#14181A"><title>2025-07-26: 0 contributions</title></rect><rect x="203" y="118" width="10" height="10" fill="#14181A"><title>2025-07-27: 0 contributions</title></rect><rect x="203" y="131" width="10" height="10" fill="#C8FF4D"><title>2025-07-28: 12 contributions</title></rect><rect x="203" y="144" width="10" height="10" fill="#14181A"><title>2025-07-29: 0 contributions</title></rect><rect x="203" y="157" width="10" height="10" fill="#14181A"><title>2025-07-30: 0 contributions</title></rect><rect x="216" y="170" width="10" height="10" fill="#C8FF4D"><title>2025-07-31: 10 contributions</title></rect><rect x="216" y="183" width="10" height="10" fill="#14181A"><title>2025-08-01: 0 contributions</title></rect><rect x="216" y="196" width="10" height="10" fill="#14181A"><title>2025-08-02: 0 contributions</title></rect><rect x="216" y="118" width="10" height="10" fill="#C8FF4DA6"><title>2025-08-03: 8 contributions</title></rect><rect x="216" y="131" width="10" height="10" fill="#14181A"><title>2025-08-04: 0 contributions</title></rect><rect x="216" y="144" width="10" height="10" fill="#14181A"><title>2025-08-05: 0 contributions</title></rect><rect x="216" y="157" width="10" height="10" fill="#C8FF4DA6"><title>2025-08-06: 7 contributions</title></rect><rect x="229" y="170" width="10" height="10" fill="#C8FF4DA6"><title>2025-08-07: 6 contributions</title></rect><rect x="229" y="183" width="10" height="10" fill="#14181A"><title>2025-08-08: 0 contributions</title></rect><rect x="229" y="196" width="10" height="10" fill="#14181A"><title>2025-08-09: 0 contributions</title></rect><rect x="229" y="118" width="10" height="10" fill="#C8FF4D66"><title>2025-08-10: 5 contributions</title></rect><rect x="229" y="131" width="10" height="10" fill="#14181A"><title>2025-08-11: 0 contributions</title></rect><rect x="229" y="144" width="10" height="10" fill="#14181A"><title>2025-08-12: 0 contributions</title></rect><rect x="229" y="157" width="10" height="10" fill="#C8FF4D66"><title>2025-08-13: 5 contributions</title></rect><rect x="242" y="170" width="10" height="10" fill="#14181A"><title>2025-08-14: 0 contributions</title></rect><rect x="242" y="183" width="10" height="10" fill="#14181A"><title>2025-08-15: 0 contributions</title></rect><rect x="242" y="196" width="10" height="10" fill="#C8FF4DA6"><title>2025-08-16: 6 contributions</title></rect><rect x="242" y="118" width="10" height="10" fill="#14181A"><title>2025-08-17: 0 contributions</title></rect><rect x="242" y="131" width="10" height="10" fill="#14181A"><title>2025-08-18: 0 contributions</title></rect><rect x="242" y="144" width="10" height="10" fill="#C8FF4DA6"><title>2025-08-19: 7 contributions</title></rect><rect x="242" y="157" width="10" height="10" fill="#C8FF4DA6"><title>2025-08-20: 8 contributions</title></rect><rect x="255" y="170" width="10" height="10" fill="#14181A"><title>2025-08-21: 0 contributions</title></rect><rect x="255" y="183" width="10" height="10" fill="#14181A"><title>2025-08-22: 0 contributions</title></rect><rect x="255" y="196" width="10" height="10" fill="#C8FF4DA6"><title>2025-08-23: 9 contributions</title></rect><rect x="255" y="118" width="10" height="10" fill="#14181A"><title>2025-08-24: 0 contributions</title></rect><rect x="255" y="131" width="10" height="10" fill="#14181A"><title>2025-08-25: 0 contributions</title></rect><rect x="255" y="144" width="10" height="10" fill="#C8FF4DA6"><title>2025-08-26: 9 contributions</title></rect><rect x="255" y="157" width="10" height="10" fill="#14181A"><title>2025-08-27: 0 contributions</title></rect><rect x="268" y="170" width="10" height="10" fill="#14181A"><title>2025-08-28: 0 contributions</title></rect><rect x="268" y="183" width="10" height="10" fill="#C8FF4DA6"><title>2025-08-29: 9 contributions</title></rect><rect x="268" y="196" width="10" height="10" fill="#14181A"><title>2025-08-30: 0 contributions</title></rect><rect x="268" y="118" width="10" height="10" fill="#14181A"><title>2025-08-31: 0 contributions</title></rect><rect x="268" y="131" width="10" height="10" fill="#C8FF4DA6"><title>2025-09-01: 7 contributions</title></rect><rect x="268" y="144" width="10" height="10" fill="#C8FF4DA6"><title>2025-09-02: 7 contributions</title></rect><rect x="268" y="157" width="10" height="10" fill="#14181A"><title>2025-09-03: 0 contributions</title></rect><rect x="281" y="170" width="10" height="10" fill="#14181A"><title>2025-09-04: 0 contributions</title></rect><rect x="281" y="183" width="10" height="10" fill="#C8FF4D66"><title>2025-09-05: 5 contributions</title></rect><rect x="281" y="196" width="10" height="10" fill="#14181A"><title>2025-09-06: 0 contributions</title></rect><rect x="281" y="118" width="10" height="10" fill="#14181A"><title>2025-09-07: 0 contributions</title></rect><rect x="281" y="131" width="10" height="10" fill="#C8FF4D66"><title>2025-09-08: 3 contributions</title></rect><rect x="281" y="144" width="10" height="10" fill="#14181A"><title>2025-09-09: 0 contributions</title></rect><rect x="281" y="157" width="10" height="10" fill="#14181A"><title>2025-09-10: 0 contributions</title></rect><rect x="294" y="170" width="10" height="10" fill="#C8FF4D33"><title>2025-09-11: 1 contributions</title></rect><rect x="294" y="183" width="10" height="10" fill="#14181A"><title>2025-09-12: 0 contributions</title></rect><rect x="294" y="196" width="10" height="10" fill="#14181A"><title>2025-09-13: 0 contributions</title></rect><rect x="294" y="118" width="10" height="10" fill="#C8FF4D33"><title>2025-09-14: 1 contributions</title></rect><rect x="294" y="131" width="10" height="10" fill="#C8FF4D33"><title>2025-09-15: 1 contributions</title></rect><rect x="294" y="144" width="10" height="10" fill="#14181A"><title>2025-09-16: 0 contributions</title></rect><rect x="294" y="157" width="10" height="10" fill="#14181A"><title>2025-09-17: 0 contributions</title></rect><rect x="307" y="170" width="10" height="10" fill="#C8FF4D33"><title>2025-09-18: 2 contributions</title></rect><rect x="307" y="183" width="10" height="10" fill="#14181A"><title>2025-09-19: 0 contributions</title></rect><rect x="307" y="196" width="10" height="10" fill="#14181A"><title>2025-09-20: 0 contributions</title></rect><rect x="307" y="118" width="10" height="10" fill="#C8FF4D66"><title>2025-09-21: 3 contributions</title></rect><rect x="307" y="131" width="10" height="10" fill="#14181A"><title>2025-09-22: 0 contributions</title></rect><rect x="307" y="144" width="10" height="10" fill="#14181A"><title>2025-09-23: 0 contributions</title></rect><rect x="307" y="157" width="10" height="10" fill="#C8FF4D66"><title>2025-09-24: 5 contributions</title></rect><rect x="320" y="170" width="10" height="10" fill="#14181A"><title>2025-09-25: 0 contributions</title></rect><rect x="320" y="183" width="10" height="10" fill="#14181A"><title>2025-09-26: 0 contributions</title></rect><rect x="320" y="196" width="10" height="10" fill="#C8FF4DA6"><title>2025-09-27: 6 contributions</title></rect><rect x="320" y="118" width="10" height="10" fill="#C8FF4DA6"><title>2025-09-28: 6 contributions</title></rect><rect x="320" y="131" width="10" height="10" fill="#14181A"><title>2025-09-29: 0 contributions</title></rect><rect x="320" y="144" width="10" height="10" fill="#14181A"><title>2025-09-30: 0 contributions</title></rect><rect x="320" y="157" width="10" height="10" fill="#C8FF4DA6"><title>2025-10-01: 6 contributions</title></rect><rect x="333" y="170" width="10" height="10" fill="#14181A"><title>2025-10-02: 0 contributions</title></rect><rect x="333" y="183" width="10" height="10" fill="#14181A"><title>2025-10-03: 0 contributions</title></rect><rect x="333" y="196" width="10" height="10" fill="#C8FF4D66"><title>2025-10-04: 5 contributions</title></rect><rect x="333" y="118" width="10" height="10" fill="#14181A"><title>2025-10-05: 0 contributions</title></rect><rect x="333" y="131" width="10" height="10" fill="#14181A"><title>2025-10-06: 0 contributions</title></rect><rect x="333" y="144" width="10" height="10" fill="#C8FF4D66"><title>2025-10-07: 4 contributions</title></rect><rect x="333" y="157" width="10" height="10" fill="#14181A"><title>2025-10-08: 0 contributions</title></rect><rect x="346" y="170" width="10" height="10" fill="#14181A"><title>2025-10-09: 0 contributions</title></rect><rect x="346" y="183" width="10" height="10" fill="#C8FF4D33"><title>2025-10-10: 2 contributions</title></rect><rect x="346" y="196" width="10" height="10" fill="#C8FF4D33"><title>2025-10-11: 2 contributions</title></rect><rect x="346" y="118" width="10" height="10" fill="#14181A"><title>2025-10-12: 0 contributions</title></rect><rect x="346" y="131" width="10" height="10" fill="#14181A"><title>2025-10-13: 0 contributions</title></rect><rect x="346" y="144" width="10" height="10" fill="#C8FF4D33"><title>2025-10-14: 1 contributions</title></rect><rect x="346" y="157" width="10" height="10" fill="#14181A"><title>2025-10-15: 0 contributions</title></rect><rect x="359" y="170" width="10" height="10" fill="#14181A"><title>2025-10-16: 0 contributions</title></rect><rect x="359" y="183" width="10" height="10" fill="#C8FF4D33"><title>2025-10-17: 1 contributions</title></rect><rect x="359" y="196" width="10" height="10" fill="#14181A"><title>2025-10-18: 0 contributions</title></rect><rect x="359" y="118" width="10" height="10" fill="#14181A"><title>2025-10-19: 0 contributions</title></rect><rect x="359" y="131" width="10" height="10" fill="#C8FF4D33"><title>2025-10-20: 2 contributions</title></rect><rect x="359" y="144" width="10" height="10" fill="#14181A"><title>2025-10-21: 0 contributions</title></rect><rect x="359" y="157" width="10" height="10" fill="#14181A"><title>2025-10-22: 0 contributions</title></rect><rect x="372" y="170" width="10" height="10" fill="#C8FF4D66"><title>2025-10-23: 4 contributions</title></rect><rect x="372" y="183" width="10" height="10" fill="#C8FF4D66"><title>2025-10-24: 5 contributions</title></rect><rect x="372" y="196" width="10" height="10" fill="#14181A"><title>2025-10-25: 0 contributions</title></rect><rect x="372" y="118" width="10" height="10" fill="#14181A"><title>2025-10-26: 0 contributions</title></rect><rect x="372" y="131" width="10" height="10" fill="#C8FF4DA6"><title>2025-10-27: 7 contributions</title></rect><rect x="372" y="144" width="10" height="10" fill="#14181A"><title>2025-10-28: 0 contributions</title></rect><rect x="372" y="157" width="10" height="10" fill="#14181A"><title>2025-10-29: 0 contributions</title></rect><rect x="385" y="170" width="10" height="10" fill="#C8FF4DA6"><title>2025-10-30: 8 contributions</title></rect><rect x="385" y="183" width="10" height="10" fill="#14181A"><title>2025-10-31: 0 contributions</title></rect><rect x="385" y="196" width="10" height="10" fill="#14181A"><title>2025-11-01: 0 contributions</title></rect><rect x="385" y="118" width="10" height="10" fill="#C8FF4DA6"><title>2025-11-02: 9 contributions</title></rect><rect x="385" y="131" width="10" height="10" fill="#14181A"><title>2025-11-03: 0 contributions</title></rect><rect x="385" y="144" width="10" height="10" fill="#14181A"><title>2025-11-04: 0 contributions</title></rect><rect x="385" y="157" width="10" height="10" fill="#C8FF4DA6"><title>2025-11-05: 9 contributions</title></rect><rect x="398" y="170" width="10" height="10" fill="#C8FF4DA6"><title>2025-11-06: 8 contributions</title></rect><rect x="398" y="183" width="10" height="10" fill="#14181A"><title>2025-11-07: 0 contributions</title></rect><rect x="398" y="196" width="10" height="10" fill="#14181A"><title>2025-11-08: 0 contributions</title></rect><rect x="398" y="118" width="10" height="10" fill="#C8FF4DA6"><title>2025-11-09: 7 contributions</title></rect><rect x="398" y="131" width="10" height="10" fill="#14181A"><title>2025-11-10: 0 contributions</title></rect><rect x="398" y="144" width="10" height="10" fill="#14181A"><title>2025-11-11: 0 contributions</title></rect><rect x="398" y="157" width="10" height="10" fill="#C8FF4DA6"><title>2025-11-12: 6 contributions</title></rect><rect x="411" y="170" width="10" height="10" fill="#14181A"><title>2025-11-13: 0 contributions</title></rect><rect x="411" y="183" width="10" height="10" fill="#14181A"><title>2025-11-14: 0 contributions</title></rect><rect x="411" y="196" width="10" height="10" fill="#C8FF4D66"><title>2025-11-15: 5 contributions</title></rect><rect x="411" y="118" width="10" height="10" fill="#14181A"><title>2025-11-16: 0 contributions</title></rect><rect x="411" y="131" width="10" height="10" fill="#14181A"><title>2025-11-17: 0 contributions</title></rect><rect x="411" y="144" width="10" height="10" fill="#C8FF4D66"><title>2025-11-18: 5 contributions</title></rect><rect x="411" y="157" width="10" height="10" fill="#C8FF4D66"><title>2025-11-19: 5 contributions</title></rect><rect x="424" y="170" width="10" height="10" fill="#14181A"><title>2025-11-20: 0 contributions</title></rect><rect x="424" y="183" width="10" height="10" fill="#14181A"><title>2025-11-21: 0 contributions</title></rect><rect x="424" y="196" width="10" height="10" fill="#C8FF4DA6"><title>2025-11-22: 6 contributions</title></rect><rect x="424" y="118" width="10" height="10" fill="#14181A"><title>2025-11-23: 0 contributions</title></rect><rect x="424" y="131" width="10" height="10" fill="#14181A"><title>2025-11-24: 0 contributions</title></rect><rect x="424" y="144" width="10" height="10" fill="#C8FF4DA6"><title>2025-11-25: 8 contributions</title></rect><rect x="424" y="157" width="10" height="10" fill="#14181A"><title>2025-11-26: 0 contributions</title></rect><rect x="437" y="170" width="10" height="10" fill="#14181A"><title>2025-11-27: 0 contributions</title></rect><rect x="437" y="183" width="10" height="10" fill="#C8FF4D"><title>2025-11-28: 10 contributions</title></rect><rect x="437" y="196" width="10" height="10" fill="#14181A"><title>2025-11-29: 0 contributions</title></rect><rect x="437" y="118" width="10" height="10" fill="#14181A"><title>2025-11-30: 0 contributions</title></rect><rect x="437" y="131" width="10" height="10" fill="#C8FF4D"><title>2025-12-01: 11 contributions</title></rect><rect x="437" y="144" width="10" height="10" fill="#C8FF4D"><title>2025-12-02: 12 contributions</title></rect><rect x="437" y="157" width="10" height="10" fill="#14181A"><title>2025-12-03: 0 contributions</title></rect><rect x="450" y="170" width="10" height="10" fill="#14181A"><title>2025-12-04: 0 contributions</title></rect><rect x="450" y="183" width="10" height="10" fill="#C8FF4D"><title>2025-12-05: 12 contributions</title></rect><rect x="450" y="196" width="10" height="10" fill="#14181A"><title>2025-12-06: 0 contributions</title></rect><rect x="450" y="118" width="10" height="10" fill="#14181A"><title>2025-12-07: 0 contributions</title></rect><rect x="450" y="131" width="10" height="10" fill="#C8FF4D"><title>2025-12-08: 11 contributions</title></rect><rect x="450" y="144" width="10" height="10" fill="#14181A"><title>2025-12-09: 0 contributions</title></rect><rect x="450" y="157" width="10" height="10" fill="#14181A"><title>2025-12-10: 0 contributions</title></rect><rect x="463" y="170" width="10" height="10" fill="#C8FF4D"><title>2025-12-11: 10 contributions</title></rect><rect x="463" y="183" width="10" height="10" fill="#14181A"><title>2025-12-12: 0 contributions</title></rect><rect x="463" y="196" width="10" height="10" fill="#14181A"><title>2025-12-13: 0 contributions</title></rect><rect x="463" y="118" width="10" height="10" fill="#C8FF4DA6"><title>2025-12-14: 8 contributions</title></rect><rect x="463" y="131" width="10" height="10" fill="#C8FF4DA6"><title>2025-12-15: 7 contributions</title></rect><rect x="463" y="144" width="10" height="10" fill="#14181A"><title>2025-12-16: 0 contributions</title></rect><rect x="463" y="157" width="10" height="10" fill="#14181A"><title>2025-12-17: 0 contributions</title></rect><rect x="476" y="170" width="10" height="10" fill="#C8FF4DA6"><title>2025-12-18: 6 contributions</title></rect><rect x="476" y="183" width="10" height="10" fill="#14181A"><title>2025-12-19: 0 contributions</title></rect><rect x="476" y="196" width="10" height="10" fill="#14181A"><title>2025-12-20: 0 contributions</title></rect><rect x="476" y="118" width="10" height="10" fill="#C8FF4D66"><title>2025-12-21: 5 contributions</title></rect><rect x="476" y="131" width="10" height="10" fill="#14181A"><title>2025-12-22: 0 contributions</title></rect><rect x="476" y="144" width="10" height="10" fill="#14181A"><title>2025-12-23: 0 contributions</title></rect><rect x="476" y="157" width="10" height="10" fill="#C8FF4D66"><title>2025-12-24: 5 contributions</title></rect><rect x="489" y="170" width="10" height="10" fill="#14181A"><title>2025-12-25: 0 contributions</title></rect><rect x="489" y="183" width="10" height="10" fill="#14181A"><title>2025-12-26: 0 contributions</title></rect><rect x="489" y="196" width="10" height="10" fill="#C8FF4DA6"><title>2025-12-27: 6 contributions</title></rect><rect x="489" y="118" width="10" height="10" fill="#C8FF4DA6"><title>2025-12-28: 7 contributions</title></rect><rect x="489" y="131" width="10" height="10" fill="#14181A"><title>2025-12-29: 0 contributions</title></rect><rect x="489" y="144" width="10" height="10" fill="#14181A"><title>2025-12-30: 0 contributions</title></rect><rect x="489" y="157" width="10" height="10" fill="#C8FF4DA6"><title>2025-12-31: 8 contributions</title></rect><rect x="502" y="170" width="10" height="10" fill="#14181A"><title>2026-01-01: 0 contributions</title></rect><rect x="502" y="183" width="10" height="10" fill="#14181A"><title>2026-01-02: 0 contributions</title></rect><rect x="502" y="196" width="10" height="10" fill="#C8FF4DA6"><title>2026-01-03: 9 contributions</title></rect><rect x="502" y="118" width="10" height="10" fill="#14181A"><title>2026-01-04: 0 contributions</title></rect><rect x="502" y="131" width="10" height="10" fill="#14181A"><title>2026-01-05: 0 contributions</title></rect><rect x="502" y="144" width="10" height="10" fill="#C8FF4DA6"><title>2026-01-06: 9 contributions</title></rect><rect x="502" y="157" width="10" height="10" fill="#14181A"><title>2026-01-07: 0 contributions</title></rect><rect x="515" y="170" width="10" height="10" fill="#14181A"><title>2026-01-08: 0 contributions</title></rect><rect x="515" y="183" width="10" height="10" fill="#C8FF4DA6"><title>2026-01-09: 9 contributions</title></rect><rect x="515" y="196" width="10" height="10" fill="#C8FF4DA6"><title>2026-01-10: 8 contributions</title></rect><rect x="515" y="118" width="10" height="10" fill="#14181A"><title>2026-01-11: 0 contributions</title></rect><rect x="515" y="131" width="10" height="10" fill="#14181A"><title>2026-01-12: 0 contributions</title></rect><rect x="515" y="144" width="10" height="10" fill="#C8FF4DA6"><title>2026-01-13: 6 contributions</title></rect><rect x="515" y="157" width="10" height="10" fill="#14181A"><title>2026-01-14: 0 contributions</title></rect><rect x="528" y="170" width="10" height="10" fill="#14181A"><title>2026-01-15: 0 contributions</title></rect><rect x="528" y="183" width="10" height="10" fill="#C8FF4D66"><title>2026-01-16: 4 contributions</title></rect><rect x="528" y="196" width="10" height="10" fill="#14181A"><title>2026-01-17: 0 contributions</title></rect><rect x="528" y="118" width="10" height="10" fill="#14181A"><title>2026-01-18: 0 contributions</title></rect><rect x="528" y="131" width="10" height="10" fill="#C8FF4D33"><title>2026-01-19: 2 contributions</title></rect><rect x="528" y="144" width="10" height="10" fill="#14181A"><title>2026-01-20: 0 contributions</title></rect><rect x="528" y="157" width="10" height="10" fill="#14181A"><title>2026-01-21: 0 contributions</title></rect><rect x="541" y="170" width="10" height="10" fill="#C8FF4D33"><title>2026-01-22: 1 contributions</title></rect><rect x="541" y="183" width="10" height="10" fill="#C8FF4D33"><title>2026-01-23: 1 contributions</title></rect><rect x="541" y="196" width="10" height="10" fill="#14181A"><title>2026-01-24: 0 contributions</title></rect><rect x="541" y="118" width="10" height="10" fill="#14181A"><title>2026-01-25: 0 contributions</title></rect><rect x="541" y="131" width="10" height="10" fill="#C8FF4D33"><title>2026-01-26: 1 contributions</title></rect><rect x="541" y="144" width="10" height="10" fill="#14181A"><title>2026-01-27: 0 contributions</title></rect><rect x="541" y="157" width="10" height="10" fill="#14181A"><title>2026-01-28: 0 contributions</title></rect><rect x="554" y="170" width="10" height="10" fill="#C8FF4D33"><title>2026-01-29: 2 contributions</title></rect><rect x="554" y="183" width="10" height="10" fill="#14181A"><title>2026-01-30: 0 contributions</title></rect><rect x="554" y="196" width="10" height="10" fill="#14181A"><title>2026-01-31: 0 contributions</title></rect><rect x="554" y="118" width="10" height="10" fill="#C8FF4D66"><title>2026-02-01: 4 contributions</title></rect><rect x="554" y="131" width="10" height="10" fill="#14181A"><title>2026-02-02: 0 contributions</title></rect><rect x="554" y="144" width="10" height="10" fill="#14181A"><title>2026-02-03: 0 contributions</title></rect><rect x="554" y="157" width="10" height="10" fill="#C8FF4D66"><title>2026-02-04: 5 contributions</title></rect><rect x="567" y="170" width="10" height="10" fill="#C8FF4D66"><title>2026-02-05: 5 contributions</title></rect><rect x="567" y="183" width="10" height="10" fill="#14181A"><title>2026-02-06: 0 contributions</title></rect><rect x="567" y="196" width="10" height="10" fill="#14181A"><title>2026-02-07: 0 contributions</title></rect><rect x="567" y="118" width="10" height="10" fill="#C8FF4DA6"><title>2026-02-08: 6 contributions</title></rect><rect x="567" y="131" width="10" height="10" fill="#14181A"><title>2026-02-09: 0 contributions</title></rect><rect x="567" y="144" width="10" height="10" fill="#14181A"><title>2026-02-10: 0 contributions</title></rect><rect x="567" y="157" width="10" height="10" fill="#C8FF4DA6"><title>2026-02-11: 6 contributions</title></rect><rect x="580" y="170" width="10" height="10" fill="#14181A"><title>2026-02-12: 0 contributions</title></rect><rect x="580" y="183" width="10" height="10" fill="#14181A"><title>2026-02-13: 0 contributions</title></rect><rect x="580" y="196" width="10" height="10" fill="#C8FF4D66"><title>2026-02-14: 5 contributions</title></rect><rect x="580" y="118" width="10" height="10" fill="#14181A"><title>2026-02-15: 0 contributions</title></rect><rect x="580" y="131" width="10" height="10" fill="#14181A"><title>2026-02-16: 0 contributions</title></rect><rect x="580" y="144" width="10" height="10" fill="#C8FF4D66"><title>2026-02-17: 3 contributions</title></rect><rect x="580" y="157" width="10" height="10" fill="#C8FF4D66"><title>2026-02-18: 3 contributions</title></rect><rect x="593" y="170" width="10" height="10" fill="#14181A"><title>2026-02-19: 0 contributions</title></rect><rect x="593" y="183" width="10" height="10" fill="#14181A"><title>2026-02-20: 0 contributions</title></rect><rect x="593" y="196" width="10" height="10" fill="#C8FF4D33"><title>2026-02-21: 1 contributions</title></rect><rect x="593" y="118" width="10" height="10" fill="#14181A"><title>2026-02-22: 0 contributions</title></rect><rect x="593" y="131" width="10" height="10" fill="#14181A"><title>2026-02-23: 0 contributions</title></rect><rect x="593" y="144" width="10" height="10" fill="#C8FF4D33"><title>2026-02-24: 1 contributions</title></rect><rect x="593" y="157" width="10" height="10" fill="#14181A"><title>2026-02-25: 0 contributions</title></rect><rect x="606" y="170" width="10" height="10" fill="#14181A"><title>2026-02-26: 0 contributions</title></rect><rect x="606" y="183" width="10" height="10" fill="#C8FF4D33"><title>2026-02-27: 1 contributions</title></rect><rect x="606" y="196" width="10" height="10" fill="#14181A"><title>2026-02-28: 0 contributions</title></rect><rect x="606" y="118" width="10" height="10" fill="#14181A"><title>2026-03-01: 0 contributions</title></rect><rect x="606" y="131" width="10" height="10" fill="#C8FF4D33"><title>2026-03-02: 2 contributions</title></rect><rect x="606" y="144" width="10" height="10" fill="#C8FF4D66"><title>2026-03-03: 3 contributions</title></rect><rect x="606" y="157" width="10" height="10" fill="#14181A"><title>2026-03-04: 0 contributions</title></rect><rect x="619" y="170" width="10" height="10" fill="#14181A"><title>2026-03-05: 0 contributions</title></rect><rect x="619" y="183" width="10" height="10" fill="#C8FF4D66"><title>2026-03-06: 5 contributions</title></rect><rect x="619" y="196" width="10" height="10" fill="#14181A"><title>2026-03-07: 0 contributions</title></rect><rect x="619" y="118" width="10" height="10" fill="#14181A"><title>2026-03-08: 0 contributions</title></rect><rect x="619" y="131" width="10" height="10" fill="#C8FF4DA6"><title>2026-03-09: 7 contributions</title></rect><rect x="619" y="144" width="10" height="10" fill="#14181A"><title>2026-03-10: 0 contributions</title></rect><rect x="619" y="157" width="10" height="10" fill="#14181A"><title>2026-03-11: 0 contributions</title></rect><rect x="632" y="170" width="10" height="10" fill="#C8FF4DA6"><title>2026-03-12: 8 contributions</title></rect><rect x="632" y="183" width="10" height="10" fill="#14181A"><title>2026-03-13: 0 contributions</title></rect><rect x="632" y="196" width="10" height="10" fill="#14181A"><title>2026-03-14: 0 contributions</title></rect><rect x="632" y="118" width="10" height="10" fill="#C8FF4DA6"><title>2026-03-15: 9 contributions</title></rect><rect x="632" y="131" width="10" height="10" fill="#C8FF4DA6"><title>2026-03-16: 9 contributions</title></rect><rect x="632" y="144" width="10" height="10" fill="#14181A"><title>2026-03-17: 0 contributions</title></rect><rect x="632" y="157" width="10" height="10" fill="#14181A"><title>2026-03-18: 0 contributions</title></rect><rect x="645" y="170" width="10" height="10" fill="#C8FF4DA6"><title>2026-03-19: 8 contributions</title></rect><rect x="645" y="183" width="10" height="10" fill="#14181A"><title>2026-03-20: 0 contributions</title></rect><rect x="645" y="196" width="10" height="10" fill="#14181A"><title>2026-03-21: 0 contributions</title></rect><rect x="645" y="118" width="10" height="10" fill="#C8FF4DA6"><title>2026-03-22: 7 contributions</title></rect><rect x="645" y="131" width="10" height="10" fill="#14181A"><title>2026-03-23: 0 contributions</title></rect><rect x="645" y="144" width="10" height="10" fill="#14181A"><title>2026-03-24: 0 contributions</title></rect><rect x="645" y="157" width="10" height="10" fill="#C8FF4DA6"><title>2026-03-25: 6 contributions</title></rect><rect x="658" y="170" width="10" height="10" fill="#14181A"><title>2026-03-26: 0 contributions</title></rect><rect x="658" y="183" width="10" height="10" fill="#14181A"><title>2026-03-27: 0 contributions</title></rect><rect x="658" y="196" width="10" height="10" fill="#C8FF4D66"><title>2026-03-28: 5 contributions</title></rect><rect x="658" y="118" width="10" height="10" fill="#C8FF4D66"><title>2026-03-29: 5 contributions</title></rect><rect x="658" y="131" width="10" height="10" fill="#14181A"><title>2026-03-30: 0 contributions</title></rect><rect x="658" y="144" width="10" height="10" fill="#14181A"><title>2026-03-31: 0 contributions</title></rect><rect x="658" y="157" width="10" height="10" fill="#C8FF4D66"><title>2026-04-01: 5 contributions</title></rect><rect x="671" y="170" width="10" height="10" fill="#14181A"><title>2026-04-02: 0 contributions</title></rect><rect x="671" y="183" width="10" height="10" fill="#14181A"><title>2026-04-03: 0 contributions</title></rect><rect x="671" y="196" width="10" height="10" fill="#C8FF4DA6"><title>2026-04-04: 6 contributions</title></rect><rect x="671" y="118" width="10" height="10" fill="#14181A"><title>2026-04-05: 0 contributions</title></rect><rect x="671" y="131" width="10" height="10" fill="#14181A"><title>2026-04-06: 0 contributions</title></rect><rect x="671" y="144" width="10" height="10" fill="#C8FF4DA6"><title>2026-04-07: 8 contributions</title></rect><rect x="671" y="157" width="10" height="10" fill="#14181A"><title>2026-04-08: 0 contributions</title></rect><rect x="684" y="170" width="10" height="10" fill="#14181A"><title>2026-04-09: 0 contributions</title></rect><rect x="684" y="183" width="10" height="10" fill="#C8FF4D"><title>2026-04-10: 10 contributions</title></rect><rect x="684" y="196" width="10" height="10" fill="#C8FF4D"><title>2026-04-11: 11 contributions</title></rect><rect x="684" y="118" width="10" height="10" fill="#14181A"><title>2026-04-12: 0 contributions</title></rect><rect x="684" y="131" width="10" height="10" fill="#14181A"><title>2026-04-13: 0 contributions</title></rect><rect x="684" y="144" width="10" height="10" fill="#C8FF4D"><title>2026-04-14: 12 contributions</title></rect><rect x="684" y="157" width="10" height="10" fill="#14181A"><title>2026-04-15: 0 contributions</title></rect><rect x="697" y="170" width="10" height="10" fill="#14181A"><title>2026-04-16: 0 contributions</title></rect><rect x="697" y="183" width="10" height="10" fill="#C8FF4D"><title>2026-04-17: 12 contributions</title></rect><rect x="697" y="196" width="10" height="10" fill="#14181A"><title>2026-04-18: 0 contributions</title></rect><rect x="697" y="118" width="10" height="10" fill="#14181A"><title>2026-04-19: 0 contributions</title></rect><rect x="697" y="131" width="10" height="10" fill="#C8FF4D"><title>2026-04-20: 11 contributions</title></rect><rect x="697" y="144" width="10" height="10" fill="#14181A"><title>2026-04-21: 0 contributions</title></rect><rect x="697" y="157" width="10" height="10" fill="#14181A"><title>2026-04-22: 0 contributions</title></rect><rect x="710" y="170" width="10" height="10" fill="#C8FF4D"><title>2026-04-23: 10 contributions</title></rect><rect x="710" y="183" width="10" height="10" fill="#C8FF4DA6"><title>2026-04-24: 9 contributions</title></rect><rect x="710" y="196" width="10" height="10" fill="#14181A"><title>2026-04-25: 0 contributions</title></rect><rect x="710" y="118" width="10" height="10" fill="#14181A"><title>2026-04-26: 0 contributions</title></rect><rect x="710" y="131" width="10" height="10" fill="#C8FF4DA6"><title>2026-04-27: 7 contributions</title></rect><rect x="710" y="144" width="10" height="10" fill="#14181A"><title>2026-04-28: 0 contributions</title></rect><rect x="710" y="157" width="10" height="10" fill="#14181A"><title>2026-04-29: 0 contributions</title></rect><rect x="723" y="170" width="10" height="10" fill="#C8FF4DA6"><title>2026-04-30: 6 contributions</title></rect><rect x="723" y="183" width="10" height="10" fill="#14181A"><title>2026-05-01: 0 contributions</title></rect><rect x="723" y="196" width="10" height="10" fill="#14181A"><title>2026-05-02: 0 contributions</title></rect><rect x="723" y="118" width="10" height="10" fill="#C8FF4D66"><title>2026-05-03: 5 contributions</title></rect><rect x="723" y="131" width="10" height="10" fill="#14181A"><title>2026-05-04: 0 contributions</title></rect><rect x="723" y="144" width="10" height="10" fill="#14181A"><title>2026-05-05: 0 contributions</title></rect><rect x="723" y="157" width="10" height="10" fill="#C8FF4DA6"><title>2026-05-06: 6 contributions</title></rect><rect x="736" y="170" width="10" height="10" fill="#C8FF4DA6"><title>2026-05-07: 6 contributions</title></rect><rect x="736" y="183" width="10" height="10" fill="#14181A"><title>2026-05-08: 0 contributions</title></rect><rect x="736" y="196" width="10" height="10" fill="#14181A"><title>2026-05-09: 0 contributions</title></rect><rect x="736" y="118" width="10" height="10" fill="#C8FF4DA6"><title>2026-05-10: 7 contributions</title></rect><rect x="736" y="131" width="10" height="10" fill="#14181A"><title>2026-05-11: 0 contributions</title></rect><rect x="736" y="144" width="10" height="10" fill="#14181A"><title>2026-05-12: 0 contributions</title></rect><rect x="736" y="157" width="10" height="10" fill="#C8FF4DA6"><title>2026-05-13: 8 contributions</title></rect><rect x="749" y="170" width="10" height="10" fill="#14181A"><title>2026-05-14: 0 contributions</title></rect><rect x="749" y="183" width="10" height="10" fill="#14181A"><title>2026-05-15: 0 contributions</title></rect><rect x="749" y="196" width="10" height="10" fill="#C8FF4DA6"><title>2026-05-16: 9 contributions</title></rect><rect x="749" y="118" width="10" height="10" fill="#14181A"><title>2026-05-17: 0 contributions</title></rect><rect x="749" y="131" width="10" height="10" fill="#14181A"><title>2026-05-18: 0 contributions</title></rect><rect x="749" y="144" width="10" height="10" fill="#C8FF4DA6"><title>2026-05-19: 9 contributions</title></rect><rect x="749" y="157" width="10" height="10" fill="#C8FF4DA6"><title>2026-05-20: 9 contributions</title></rect><rect x="762" y="170" width="10" height="10" fill="#14181A"><title>2026-05-21: 0 contributions</title></rect><rect x="762" y="183" width="10" height="10" fill="#14181A"><title>2026-05-22: 0 contributions</title></rect><rect x="762" y="196" width="10" height="10" fill="#C8FF4DA6"><title>2026-05-23: 8 contributions</title></rect><rect x="762" y="118" width="10" height="10" fill="#14181A"><title>2026-05-24: 0 contributions</title></rect><rect x="762" y="131" width="10" height="10" fill="#14181A"><title>2026-05-25: 0 contributions</title></rect><rect x="762" y="144" width="10" height="10" fill="#C8FF4DA6"><title>2026-05-26: 6 contributions</title></rect><rect x="762" y="157" width="10" height="10" fill="#14181A"><title>2026-05-27: 0 contributions</title></rect><rect x="775" y="170" width="10" height="10" fill="#14181A"><title>2026-05-28: 0 contributions</title></rect><rect x="775" y="183" width="10" height="10" fill="#C8FF4D66"><title>2026-05-29: 4 contributions</title></rect><rect x="775" y="196" width="10" height="10" fill="#14181A"><title>2026-05-30: 0 contributions</title></rect><rect x="775" y="118" width="10" height="10" fill="#14181A"><title>2026-05-31: 0 contributions</title></rect><rect x="775" y="131" width="10" height="10" fill="#C8FF4D33"><title>2026-06-01: 2 contributions</title></rect><rect x="775" y="144" width="10" height="10" fill="#C8FF4D33"><title>2026-06-02: 2 contributions</title></rect><rect x="775" y="157" width="10" height="10" fill="#14181A"><title>2026-06-03: 0 contributions</title></rect><rect x="788" y="170" width="10" height="10" fill="#14181A"><title>2026-06-04: 0 contributions</title></rect><rect x="788" y="183" width="10" height="10" fill="#C8FF4D33"><title>2026-06-05: 1 contributions</title></rect><rect x="788" y="196" width="10" height="10" fill="#14181A"><title>2026-06-06: 0 contributions</title></rect><rect x="788" y="118" width="10" height="10" fill="#14181A"><title>2026-06-07: 0 contributions</title></rect><rect x="788" y="131" width="10" height="10" fill="#C8FF4D33"><title>2026-06-08: 1 contributions</title></rect><rect x="788" y="144" width="10" height="10" fill="#14181A"><title>2026-06-09: 0 contributions</title></rect><rect x="788" y="157" width="10" height="10" fill="#14181A"><title>2026-06-10: 0 contributions</title></rect><rect x="801" y="170" width="10" height="10" fill="#C8FF4D66"><title>2026-06-11: 3 contributions</title></rect><rect x="801" y="183" width="10" height="10" fill="#14181A"><title>2026-06-12: 0 contributions</title></rect><rect x="801" y="196" width="10" height="10" fill="#14181A"><title>2026-06-13: 0 contributions</title></rect><rect x="801" y="118" width="10" height="10" fill="#C8FF4D66"><title>2026-06-14: 4 contributions</title></rect><rect x="801" y="131" width="10" height="10" fill="#C8FF4D66"><title>2026-06-15: 5 contributions</title></rect><rect x="801" y="144" width="10" height="10" fill="#14181A"><title>2026-06-16: 0 contributions</title></rect><rect x="801" y="157" width="10" height="10" fill="#14181A"><title>2026-06-17: 0 contributions</title></rect><rect x="814" y="170" width="10" height="10" fill="#C8FF4DA6"><title>2026-06-18: 6 contributions</title></rect><rect x="814" y="183" width="10" height="10" fill="#14181A"><title>2026-06-19: 0 contributions</title></rect><rect x="814" y="196" width="10" height="10" fill="#14181A"><title>2026-06-20: 0 contributions</title></rect><rect x="814" y="118" width="10" height="10" fill="#C8FF4DA6"><title>2026-06-21: 6 contributions</title></rect><rect x="814" y="131" width="10" height="10" fill="#14181A"><title>2026-06-22: 0 contributions</title></rect><rect x="814" y="144" width="10" height="10" fill="#14181A"><title>2026-06-23: 0 contributions</title></rect><rect x="814" y="157" width="10" height="10" fill="#C8FF4DA6"><title>2026-06-24: 6 contributions</title></rect><rect x="827" y="170" width="10" height="10" fill="#14181A"><title>2026-06-25: 0 contributions</title></rect><rect x="827" y="183" width="10" height="10" fill="#14181A"><title>2026-06-26: 0 contributions</title></rect><rect x="827" y="196" width="10" height="10" fill="#C8FF4D66"><title>2026-06-27: 4 contributions</title></rect><rect x="827" y="118" width="10" height="10" fill="#C8FF4D66"><title>2026-06-28: 4 contributions</title></rect><rect x="827" y="131" width="10" height="10" fill="#14181A"><title>2026-06-29: 0 contributions</title></rect><rect x="827" y="144" width="10" height="10" fill="#14181A"><title>2026-06-30: 0 contributions</title></rect><rect x="827" y="157" width="10" height="10" fill="#C8FF4D33"><title>2026-07-01: 2 contributions</title></rect><rect x="840" y="170" width="10" height="10" fill="#14181A"><title>2026-07-02: 0 contributions</title></rect><rect x="840" y="183" width="10" height="10" fill="#14181A"><title>2026-07-03: 0 contributions</title></rect><rect x="840" y="196" width="10" height="10" fill="#C8FF4D33"><title>2026-07-04: 1 contributions</title></rect><rect x="840" y="118" width="10" height="10" fill="#14181A"><title>2026-07-05: 0 contributions</title></rect><rect x="840" y="131" width="10" height="10" fill="#14181A"><title>2026-07-06: 0 contributions</title></rect><rect x="840" y="144" width="10" height="10" fill="#C8FF4D33"><title>2026-07-07: 1 contributions</title></rect><rect x="840" y="157" width="10" height="10" fill="#14181A"><title>2026-07-08: 0 contributions</title></rect><rect x="853" y="170" width="10" height="10" fill="#14181A"><title>2026-07-09: 0 contributions</title></rect><rect x="853" y="183" width="10" height="10" fill="#C8FF4D33"><title>2026-07-10: 1 contributions</title></rect><rect x="853" y="196" width="10" height="10" fill="#C8FF4D33"><title>2026-07-11: 2 contributions</title></rect><rect x="853" y="118" width="10" height="10" fill="#14181A"><title>2026-07-12: 0 contributions</title></rect><rect x="853" y="131" width="10" height="10" fill="#14181A"><title>2026-07-13: 0 contributions</title></rect><rect x="853" y="144" width="10" height="10" fill="#C8FF4D66"><title>2026-07-14: 3 contributions</title></rect><rect x="853" y="157" width="10" height="10" fill="#14181A"><title>2026-07-15: 0 contributions</title></rect><rect x="866" y="170" width="10" height="10" fill="#14181A"><title>2026-07-16: 0 contributions</title></rect><rect x="866" y="183" width="10" height="10" fill="#C8FF4D66"><title>2026-07-17: 5 contributions</title></rect><rect x="866" y="196" width="10" height="10" fill="#14181A"><title>2026-07-18: 0 contributions</title></rect><rect x="866" y="118" width="10" height="10" fill="#14181A"><title>2026-07-19: 0 contributions</title></rect><rect x="866" y="131" width="10" height="10" fill="#C8FF4DA6"><title>2026-07-20: 7 contributions</title></rect><rect x="866" y="144" width="10" height="10" fill="#14181A"><title>2026-07-21: 0 contributions</title></rect><rect x="866" y="157" width="10" height="10" fill="#14181A"><title>2026-07-22: 0 contributions</title></rect>
    <rect x="756" y="232" width="9" height="9" fill="#14181A"/><rect x="771" y="232" width="9" height="9" fill="#C8FF4D"/><text x="882" y="242" text-anchor="end" class="mono micro">QUIET / ACTIVE</text>
  
</svg>