<svg width="1100" height="590" viewBox="0 0 1100 590" fill="none" xmlns="http://www.w3.org/2000/svg" role="img" aria-labelledby="title desc">
  <title id="title">luan-thnh / alive signal</title>
  <desc id="desc">Full Alive Interface GitHub signal panel</desc>
  
  <defs>
    <pattern id="alive-grid" width="28" height="28" patternUnits="userSpaceOnUse">
      <path d="M28 0H0V28" stroke="#F3F0EA" stroke-opacity=".035"/>
    </pattern>
    <linearGradient id="alive-accent" x1="0" y1="0" x2="1" y2="0">
      <stop stop-color="#C8FF4D"/>
      <stop offset="1" stop-color="#F3F0EA" stop-opacity=".22"/>
    </linearGradient>
    <radialGradient id="alive-aura">
      <stop stop-color="#C8FF4D" stop-opacity=".28"/>
      <stop offset="1" stop-color="#C8FF4D" stop-opacity="0"/>
    </radialGradient>
    <filter id="alive-glow" x="-80%" y="-80%" width="260%" height="260%">
      <feGaussianBlur stdDeviation="5" result="blur"/>
      <feMerge><feMergeNode in="blur"/><feMergeNode in="SourceGraphic"/></feMerge>
    </filter>
    <style>
      .display { font-family: Arial Narrow, Helvetica Neue, Arial, sans-serif; }
      .mono { font-family: ui-monospace, SFMono-Regular, Menlo, Consolas, monospace; }
      .label { fill:#94978F; font-size:11px; letter-spacing:1.45px; }
      .micro { fill:#565B56; font-size:9px; letter-spacing:1.15px; }
      .section { fill:#F3F0EA; font-size:14px; font-weight:700; letter-spacing:2.3px; }
      .accent { fill:#C8FF4D; }
      .text { fill:#F3F0EA; }
      
      @keyframes pulse { 0%,100%{opacity:.35} 50%{opacity:1} }
      @keyframes scan { from{transform:translateX(-35%)} to{transform:translateX(135%)} }
      @keyframes blink { 0%,45%{opacity:1} 46%,100%{opacity:0} }
      @keyframes drift { 0%,100%{transform:translateY(0)} 50%{transform:translateY(-3px)} }
      .pulse { animation:pulse 2.2s ease-in-out infinite; }
      .scan { animation:scan 5s linear infinite; }
      .blink { animation:blink 1.1s steps(1,end) infinite; }
      .drift { animation:drift 4s ease-in-out infinite; }
      
    </style>
  </defs>
  <rect width="1100" height="590" fill="#090B0E"/>
  <rect width="1100" height="590" fill="url(#alive-grid)"/>
  
    
  <rect x="16" y="16" width="1068" height="558" fill="none" stroke="#2B302D"/>
  <path d="M16 34V16H34 M1066 16H1084V34 M16 556V574H34 M1066 574H1084V556" stroke="#C8FF4D" stroke-width="1.5"/>

    
  <text x="36" y="48" class="mono section">00 / ALIVE GITHUB SIGNAL</text>
  <line x1="36" y1="70" x2="1064" y2="70" stroke="#2B302D"/>
  <circle cx="930" cy="43" r="4" fill="#C8FF4D" filter="url(#alive-glow)" class="pulse"/>
  <text x="944" y="47" class="mono micro">DYNAMIC / QUERY DRIVEN</text>

    <text x="42" y="112" class="mono accent" font-size="11" letter-spacing="1.8">@LUAN-THNH / ACTIVITY NODE</text>
    <text x="38" y="220" class="display text" font-size="112" font-weight="820" letter-spacing="-6">454</text>
    <text x="44" y="250" class="mono micro">CONTRIBUTIONS / LAST 12 MONTHS</text>
    <line x1="583" y1="104" x2="583" y2="336" stroke="#2B302D"/>
    <text x="649" y="126" class="mono accent" font-size="11" letter-spacing="1.7">PRIMARY MATERIALS</text>
    <rect x="649.00" y="152" width="126.28" height="16" fill="#C8FF4D"/><rect x="775.28" y="152" width="101.64" height="16" fill="#F3F0EA"/><rect x="876.92" y="152" width="69.30" height="16" fill="#F3F0EA"/><rect x="946.22" y="152" width="40.04" height="16" fill="#94978F"/><rect x="986.26" y="152" width="28.49" height="16" fill="#565B56"/><rect x="1014.75" y="152" width="19.25" height="16" fill="#2B302D"/>
    <circle cx="649" cy="204" r="4" fill="#C8FF4D"/><text x="663" y="208" class="mono label">TYPESCRIPT</text><text x="814" y="208" text-anchor="end" class="mono micro">33%</text><circle cx="847" cy="204" r="4" fill="#F3F0EA"/><text x="861" y="208" class="mono label">JAVASCRIPT</text><text x="1012" y="208" text-anchor="end" class="mono micro">26%</text><circle cx="649" cy="238" r="4" fill="#F3F0EA"/><text x="663" y="242" class="mono label">CSS</text><text x="814" y="242" text-anchor="end" class="mono micro">18%</text><circle cx="847" cy="238" r="4" fill="#94978F"/><text x="861" y="242" class="mono label">PYTHON</text><text x="1012" y="242" text-anchor="end" class="mono micro">10%</text><circle cx="649" cy="272" r="4" fill="#565B56"/><text x="663" y="276" class="mono label">VUE</text><text x="814" y="276" text-anchor="end" class="mono micro">7.4%</text><circle cx="847" cy="272" r="4" fill="#2B302D"/><text x="861" y="276" class="mono label">HTML</text><text x="1012" y="276" text-anchor="end" class="mono micro">5.0%</text>
    <line x1="42" y1="304" x2="1058" y2="304" stroke="#2B302D"/>
    
  <text x="42" y="352" class="display" fill="#F3F0EA" font-size="32" font-weight="750" letter-spacing="-1">340</text>
  <text x="42" y="375" class="mono micro">COMMITS</text>

    
  <text x="190" y="352" class="display" fill="#F3F0EA" font-size="32" font-weight="750" letter-spacing="-1">37</text>
  <text x="190" y="375" class="mono micro">PULL REQUESTS</text>

    
  <text x="370" y="352" class="display" fill="#F3F0EA" font-size="32" font-weight="750" letter-spacing="-1">12</text>
  <text x="370" y="375" class="mono micro">STARS</text>

    
  <text x="504" y="352" class="display" fill="#F3F0EA" font-size="32" font-weight="750" letter-spacing="-1">4</text>
  <text x="504" y="375" class="mono micro">CURRENT STREAK</text>

    
  <text x="680" y="352" class="display" fill="#F3F0EA" font-size="32" font-weight="750" letter-spacing="-1">18</text>
  <text x="680" y="375" class="mono micro">LONGEST STREAK</text>

    
  <text x="856" y="352" class="display" fill="#F3F0EA" font-size="32" font-weight="750" letter-spacing="-1">48</text>
  <text x="856" y="375" class="mono micro">REPOSITORIES</text>

    <line x1="42" y1="392" x2="1058" y2="392" stroke="#2B302D"/>
    <text x="42" y="430" class="mono accent" font-size="11" letter-spacing="1.7">CONTRIBUTION TRACE</text>
    <text x="42" y="456" class="mono micro">QUIET</text>
    <rect x="88" y="447" width="9" height="9" fill="#14181A"/>
    <rect x="102" y="447" width="9" height="9" fill="#C8FF4D55"/>
    <rect x="116" y="447" width="9" height="9" fill="#C8FF4DAA"/>
    <rect x="130" y="447" width="9" height="9" fill="#C8FF4D"/>
    <text x="148" y="456" class="mono micro">ACTIVE</text>
    <text x="278" y="414" class="mono micro">JUL</text><text x="314" y="414" class="mono micro">AUG</text><text x="362" y="414" class="mono micro">SEP</text><text x="410" y="414" class="mono micro">OCT</text><text x="470" y="414" class="mono micro">NOV</text><text x="518" y="414" class="mono micro">DEC</text><text x="566" y="414" class="mono micro">JAN</text><text x="626" y="414" class="mono micro">FEB</text><text x="674" y="414" class="mono micro">MAR</text><text x="722" y="414" class="mono micro">APR</text><text x="782" y="414" class="mono micro">MAY</text><text x="830" y="414" class="mono micro">JUN</text><text x="878" y="414" class="mono micro">JUL</text>
    <rect x="278" y="478" width="9" height="9" fill="#14181A"><title>2025-07-17: 0 contributions</title></rect><rect x="278" y="490" width="9" height="9" fill="#C8FF4DA6"><title>2025-07-18: 9 contributions</title></rect><rect x="278" y="502" width="9" height="9" fill="#14181A"><title>2025-07-19: 0 contributions</title></rect><rect x="278" y="430" width="9" height="9" fill="#14181A"><title>2025-07-20: 0 contributions</title></rect><rect x="278" y="442" width="9" height="9" fill="#C8FF4D"><title>2025-07-21: 11 contributions</title></rect><rect x="278" y="454" width="9" height="9" fill="#14181A"><title>2025-07-22: 0 contributions</title></rect><rect x="278" y="466" width="9" height="9" fill="#14181A"><title>2025-07-23: 0 contributions</title></rect><rect x="290" y="478" width="9" height="9" fill="#C8FF4D"><title>2025-07-24: 12 contributions</title></rect><rect x="290" y="490" width="9" height="9" fill="#C8FF4D"><title>2025-07-25: 12 contributions</title></rect><rect x="290" y="502" width="9" height="9" fill="#14181A"><title>2025-07-26: 0 contributions</title></rect><rect x="290" y="430" width="9" height="9" fill="#14181A"><title>2025-07-27: 0 contributions</title></rect><rect x="290" y="442" width="9" height="9" fill="#C8FF4D"><title>2025-07-28: 12 contributions</title></rect><rect x="290" y="454" width="9" height="9" fill="#14181A"><title>2025-07-29: 0 contributions</title></rect><rect x="290" y="466" width="9" height="9" fill="#14181A"><title>2025-07-30: 0 contributions</title></rect><rect x="302" y="478" width="9" height="9" fill="#C8FF4D"><title>2025-07-31: 10 contributions</title></rect><rect x="302" y="490" width="9" height="9" fill="#14181A"><title>2025-08-01: 0 contributions</title></rect><rect x="302" y="502" width="9" height="9" fill="#14181A"><title>2025-08-02: 0 contributions</title></rect><rect x="302" y="430" width="9" height="9" fill="#C8FF4DA6"><title>2025-08-03: 8 contributions</title></rect><rect x="302" y="442" width="9" height="9" fill="#14181A"><title>2025-08-04: 0 contributions</title></rect><rect x="302" y="454" width="9" height="9" fill="#14181A"><title>2025-08-05: 0 contributions</title></rect><rect x="302" y="466" width="9" height="9" fill="#C8FF4DA6"><title>2025-08-06: 7 contributions</title></rect><rect x="314" y="478" width="9" height="9" fill="#C8FF4DA6"><title>2025-08-07: 6 contributions</title></rect><rect x="314" y="490" width="9" height="9" fill="#14181A"><title>2025-08-08: 0 contributions</title></rect><rect x="314" y="502" width="9" height="9" fill="#14181A"><title>2025-08-09: 0 contributions</title></rect><rect x="314" y="430" width="9" height="9" fill="#C8FF4D66"><title>2025-08-10: 5 contributions</title></rect><rect x="314" y="442" width="9" height="9" fill="#14181A"><title>2025-08-11: 0 contributions</title></rect><rect x="314" y="454" width="9" height="9" fill="#14181A"><title>2025-08-12: 0 contributions</title></rect><rect x="314" y="466" width="9" height="9" fill="#C8FF4D66"><title>2025-08-13: 5 contributions</title></rect><rect x="326" y="478" width="9" height="9" fill="#14181A"><title>2025-08-14: 0 contributions</title></rect><rect x="326" y="490" width="9" height="9" fill="#14181A"><title>2025-08-15: 0 contributions</title></rect><rect x="326" y="502" width="9" height="9" fill="#C8FF4DA6"><title>2025-08-16: 6 contributions</title></rect><rect x="326" y="430" width="9" height="9" fill="#14181A"><title>2025-08-17: 0 contributions</title></rect><rect x="326" y="442" width="9" height="9" fill="#14181A"><title>2025-08-18: 0 contributions</title></rect><rect x="326" y="454" width="9" height="9" fill="#C8FF4DA6"><title>2025-08-19: 7 contributions</title></rect><rect x="326" y="466" width="9" height="9" fill="#C8FF4DA6"><title>2025-08-20: 8 contributions</title></rect><rect x="338" y="478" width="9" height="9" fill="#14181A"><title>2025-08-21: 0 contributions</title></rect><rect x="338" y="490" width="9" height="9" fill="#14181A"><title>2025-08-22: 0 contributions</title></rect><rect x="338" y="502" width="9" height="9" fill="#C8FF4DA6"><title>2025-08-23: 9 contributions</title></rect><rect x="338" y="430" width="9" height="9" fill="#14181A"><title>2025-08-24: 0 contributions</title></rect><rect x="338" y="442" width="9" height="9" fill="#14181A"><title>2025-08-25: 0 contributions</title></rect><rect x="338" y="454" width="9" height="9" fill="#C8FF4DA6"><title>2025-08-26: 9 contributions</title></rect><rect x="338" y="466" width="9" height="9" fill="#14181A"><title>2025-08-27: 0 contributions</title></rect><rect x="350" y="478" width="9" height="9" fill="#14181A"><title>2025-08-28: 0 contributions</title></rect><rect x="350" y="490" width="9" height="9" fill="#C8FF4DA6"><title>2025-08-29: 9 contributions</title></rect><rect x="350" y="502" width="9" height="9" fill="#14181A"><title>2025-08-30: 0 contributions</title></rect><rect x="350" y="430" width="9" height="9" fill="#14181A"><title>2025-08-31: 0 contributions</title></rect><rect x="350" y="442" width="9" height="9" fill="#C8FF4DA6"><title>2025-09-01: 7 contributions</title></rect><rect x="350" y="454" width="9" height="9" fill="#C8FF4DA6"><title>2025-09-02: 7 contributions</title></rect><rect x="350" y="466" width="9" height="9" fill="#14181A"><title>2025-09-03: 0 contributions</title></rect><rect x="362" y="478" width="9" height="9" fill="#14181A"><title>2025-09-04: 0 contributions</title></rect><rect x="362" y="490" width="9" height="9" fill="#C8FF4D66"><title>2025-09-05: 5 contributions</title></rect><rect x="362" y="502" width="9" height="9" fill="#14181A"><title>2025-09-06: 0 contributions</title></rect><rect x="362" y="430" width="9" height="9" fill="#14181A"><title>2025-09-07: 0 contributions</title></rect><rect x="362" y="442" width="9" height="9" fill="#C8FF4D66"><title>2025-09-08: 3 contributions</title></rect><rect x="362" y="454" width="9" height="9" fill="#14181A"><title>2025-09-09: 0 contributions</title></rect><rect x="362" y="466" width="9" height="9" fill="#14181A"><title>2025-09-10: 0 contributions</title></rect><rect x="374" y="478" width="9" height="9" fill="#C8FF4D33"><title>2025-09-11: 1 contributions</title></rect><rect x="374" y="490" width="9" height="9" fill="#14181A"><title>2025-09-12: 0 contributions</title></rect><rect x="374" y="502" width="9" height="9" fill="#14181A"><title>2025-09-13: 0 contributions</title></rect><rect x="374" y="430" width="9" height="9" fill="#C8FF4D33"><title>2025-09-14: 1 contributions</title></rect><rect x="374" y="442" width="9" height="9" fill="#C8FF4D33"><title>2025-09-15: 1 contributions</title></rect><rect x="374" y="454" width="9" height="9" fill="#14181A"><title>2025-09-16: 0 contributions</title></rect><rect x="374" y="466" width="9" height="9" fill="#14181A"><title>2025-09-17: 0 contributions</title></rect><rect x="386" y="478" width="9" height="9" fill="#C8FF4D33"><title>2025-09-18: 2 contributions</title></rect><rect x="386" y="490" width="9" height="9" fill="#14181A"><title>2025-09-19: 0 contributions</title></rect><rect x="386" y="502" width="9" height="9" fill="#14181A"><title>2025-09-20: 0 contributions</title></rect><rect x="386" y="430" width="9" height="9" fill="#C8FF4D66"><title>2025-09-21: 3 contributions</title></rect><rect x="386" y="442" width="9" height="9" fill="#14181A"><title>2025-09-22: 0 contributions</title></rect><rect x="386" y="454" width="9" height="9" fill="#14181A"><title>2025-09-23: 0 contributions</title></rect><rect x="386" y="466" width="9" height="9" fill="#C8FF4D66"><title>2025-09-24: 5 contributions</title></rect><rect x="398" y="478" width="9" height="9" fill="#14181A"><title>2025-09-25: 0 contributions</title></rect><rect x="398" y="490" width="9" height="9" fill="#14181A"><title>2025-09-26: 0 contributions</title></rect><rect x="398" y="502" width="9" height="9" fill="#C8FF4DA6"><title>2025-09-27: 6 contributions</title></rect><rect x="398" y="430" width="9" height="9" fill="#C8FF4DA6"><title>2025-09-28: 6 contributions</title></rect><rect x="398" y="442" width="9" height="9" fill="#14181A"><title>2025-09-29: 0 contributions</title></rect><rect x="398" y="454" width="9" height="9" fill="#14181A"><title>2025-09-30: 0 contributions</title></rect><rect x="398" y="466" width="9" height="9" fill="#C8FF4DA6"><title>2025-10-01: 6 contributions</title></rect><rect x="410" y="478" width="9" height="9" fill="#14181A"><title>2025-10-02: 0 contributions</title></rect><rect x="410" y="490" width="9" height="9" fill="#14181A"><title>2025-10-03: 0 contributions</title></rect><rect x="410" y="502" width="9" height="9" fill="#C8FF4D66"><title>2025-10-04: 5 contributions</title></rect><rect x="410" y="430" width="9" height="9" fill="#14181A"><title>2025-10-05: 0 contributions</title></rect><rect x="410" y="442" width="9" height="9" fill="#14181A"><title>2025-10-06: 0 contributions</title></rect><rect x="410" y="454" width="9" height="9" fill="#C8FF4D66"><title>2025-10-07: 4 contributions</title></rect><rect x="410" y="466" width="9" height="9" fill="#14181A"><title>2025-10-08: 0 contributions</title></rect><rect x="422" y="478" width="9" height="9" fill="#14181A"><title>2025-10-09: 0 contributions</title></rect><rect x="422" y="490" width="9" height="9" fill="#C8FF4D33"><title>2025-10-10: 2 contributions</title></rect><rect x="422" y="502" width="9" height="9" fill="#C8FF4D33"><title>2025-10-11: 2 contributions</title></rect><rect x="422" y="430" width="9" height="9" fill="#14181A"><title>2025-10-12: 0 contributions</title></rect><rect x="422" y="442" width="9" height="9" fill="#14181A"><title>2025-10-13: 0 contributions</title></rect><rect x="422" y="454" width="9" height="9" fill="#C8FF4D33"><title>2025-10-14: 1 contributions</title></rect><rect x="422" y="466" width="9" height="9" fill="#14181A"><title>2025-10-15: 0 contributions</title></rect><rect x="434" y="478" width="9" height="9" fill="#14181A"><title>2025-10-16: 0 contributions</title></rect><rect x="434" y="490" width="9" height="9" fill="#C8FF4D33"><title>2025-10-17: 1 contributions</title></rect><rect x="434" y="502" width="9" height="9" fill="#14181A"><title>2025-10-18: 0 contributions</title></rect><rect x="434" y="430" width="9" height="9" fill="#14181A"><title>2025-10-19: 0 contributions</title></rect><rect x="434" y="442" width="9" height="9" fill="#C8FF4D33"><title>2025-10-20: 2 contributions</title></rect><rect x="434" y="454" width="9" height="9" fill="#14181A"><title>2025-10-21: 0 contributions</title></rect><rect x="434" y="466" width="9" height="9" fill="#14181A"><title>2025-10-22: 0 contributions</title></rect><rect x="446" y="478" width="9" height="9" fill="#C8FF4D66"><title>2025-10-23: 4 contributions</title></rect><rect x="446" y="490" width="9" height="9" fill="#C8FF4D66"><title>2025-10-24: 5 contributions</title></rect><rect x="446" y="502" width="9" height="9" fill="#14181A"><title>2025-10-25: 0 contributions</title></rect><rect x="446" y="430" width="9" height="9" fill="#14181A"><title>2025-10-26: 0 contributions</title></rect><rect x="446" y="442" width="9" height="9" fill="#C8FF4DA6"><title>2025-10-27: 7 contributions</title></rect><rect x="446" y="454" width="9" height="9" fill="#14181A"><title>2025-10-28: 0 contributions</title></rect><rect x="446" y="466" width="9" height="9" fill="#14181A"><title>2025-10-29: 0 contributions</title></rect><rect x="458" y="478" width="9" height="9" fill="#C8FF4DA6"><title>2025-10-30: 8 contributions</title></rect><rect x="458" y="490" width="9" height="9" fill="#14181A"><title>2025-10-31: 0 contributions</title></rect><rect x="458" y="502" width="9" height="9" fill="#14181A"><title>2025-11-01: 0 contributions</title></rect><rect x="458" y="430" width="9" height="9" fill="#C8FF4DA6"><title>2025-11-02: 9 contributions</title></rect><rect x="458" y="442" width="9" height="9" fill="#14181A"><title>2025-11-03: 0 contributions</title></rect><rect x="458" y="454" width="9" height="9" fill="#14181A"><title>2025-11-04: 0 contributions</title></rect><rect x="458" y="466" width="9" height="9" fill="#C8FF4DA6"><title>2025-11-05: 9 contributions</title></rect><rect x="470" y="478" width="9" height="9" fill="#C8FF4DA6"><title>2025-11-06: 8 contributions</title></rect><rect x="470" y="490" width="9" height="9" fill="#14181A"><title>2025-11-07: 0 contributions</title></rect><rect x="470" y="502" width="9" height="9" fill="#14181A"><title>2025-11-08: 0 contributions</title></rect><rect x="470" y="430" width="9" height="9" fill="#C8FF4DA6"><title>2025-11-09: 7 contributions</title></rect><rect x="470" y="442" width="9" height="9" fill="#14181A"><title>2025-11-10: 0 contributions</title></rect><rect x="470" y="454" width="9" height="9" fill="#14181A"><title>2025-11-11: 0 contributions</title></rect><rect x="470" y="466" width="9" height="9" fill="#C8FF4DA6"><title>2025-11-12: 6 contributions</title></rect><rect x="482" y="478" width="9" height="9" fill="#14181A"><title>2025-11-13: 0 contributions</title></rect><rect x="482" y="490" width="9" height="9" fill="#14181A"><title>2025-11-14: 0 contributions</title></rect><rect x="482" y="502" width="9" height="9" fill="#C8FF4D66"><title>2025-11-15: 5 contributions</title></rect><rect x="482" y="430" width="9" height="9" fill="#14181A"><title>2025-11-16: 0 contributions</title></rect><rect x="482" y="442" width="9" height="9" fill="#14181A"><title>2025-11-17: 0 contributions</title></rect><rect x="482" y="454" width="9" height="9" fill="#C8FF4D66"><title>2025-11-18: 5 contributions</title></rect><rect x="482" y="466" width="9" height="9" fill="#C8FF4D66"><title>2025-11-19: 5 contributions</title></rect><rect x="494" y="478" width="9" height="9" fill="#14181A"><title>2025-11-20: 0 contributions</title></rect><rect x="494" y="490" width="9" height="9" fill="#14181A"><title>2025-11-21: 0 contributions</title></rect><rect x="494" y="502" width="9" height="9" fill="#C8FF4DA6"><title>2025-11-22: 6 contributions</title></rect><rect x="494" y="430" width="9" height="9" fill="#14181A"><title>2025-11-23: 0 contributions</title></rect><rect x="494" y="442" width="9" height="9" fill="#14181A"><title>2025-11-24: 0 contributions</title></rect><rect x="494" y="454" width="9" height="9" fill="#C8FF4DA6"><title>2025-11-25: 8 contributions</title></rect><rect x="494" y="466" width="9" height="9" fill="#14181A"><title>2025-11-26: 0 contributions</title></rect><rect x="506" y="478" width="9" height="9" fill="#14181A"><title>2025-11-27: 0 contributions</title></rect><rect x="506" y="490" width="9" height="9" fill="#C8FF4D"><title>2025-11-28: 10 contributions</title></rect><rect x="506" y="502" width="9" height="9" fill="#14181A"><title>2025-11-29: 0 contributions</title></rect><rect x="506" y="430" width="9" height="9" fill="#14181A"><title>2025-11-30: 0 contributions</title></rect><rect x="506" y="442" width="9" height="9" fill="#C8FF4D"><title>2025-12-01: 11 contributions</title></rect><rect x="506" y="454" width="9" height="9" fill="#C8FF4D"><title>2025-12-02: 12 contributions</title></rect><rect x="506" y="466" width="9" height="9" fill="#14181A"><title>2025-12-03: 0 contributions</title></rect><rect x="518" y="478" width="9" height="9" fill="#14181A"><title>2025-12-04: 0 contributions</title></rect><rect x="518" y="490" width="9" height="9" fill="#C8FF4D"><title>2025-12-05: 12 contributions</title></rect><rect x="518" y="502" width="9" height="9" fill="#14181A"><title>2025-12-06: 0 contributions</title></rect><rect x="518" y="430" width="9" height="9" fill="#14181A"><title>2025-12-07: 0 contributions</title></rect><rect x="518" y="442" width="9" height="9" fill="#C8FF4D"><title>2025-12-08: 11 contributions</title></rect><rect x="518" y="454" width="9" height="9" fill="#14181A"><title>2025-12-09: 0 contributions</title></rect><rect x="518" y="466" width="9" height="9" fill="#14181A"><title>2025-12-10: 0 contributions</title></rect><rect x="530" y="478" width="9" height="9" fill="#C8FF4D"><title>2025-12-11: 10 contributions</title></rect><rect x="530" y="490" width="9" height="9" fill="#14181A"><title>2025-12-12: 0 contributions</title></rect><rect x="530" y="502" width="9" height="9" fill="#14181A"><title>2025-12-13: 0 contributions</title></rect><rect x="530" y="430" width="9" height="9" fill="#C8FF4DA6"><title>2025-12-14: 8 contributions</title></rect><rect x="530" y="442" width="9" height="9" fill="#C8FF4DA6"><title>2025-12-15: 7 contributions</title></rect><rect x="530" y="454" width="9" height="9" fill="#14181A"><title>2025-12-16: 0 contributions</title></rect><rect x="530" y="466" width="9" height="9" fill="#14181A"><title>2025-12-17: 0 contributions</title></rect><rect x="542" y="478" width="9" height="9" fill="#C8FF4DA6"><title>2025-12-18: 6 contributions</title></rect><rect x="542" y="490" width="9" height="9" fill="#14181A"><title>2025-12-19: 0 contributions</title></rect><rect x="542" y="502" width="9" height="9" fill="#14181A"><title>2025-12-20: 0 contributions</title></rect><rect x="542" y="430" width="9" height="9" fill="#C8FF4D66"><title>2025-12-21: 5 contributions</title></rect><rect x="542" y="442" width="9" height="9" fill="#14181A"><title>2025-12-22: 0 contributions</title></rect><rect x="542" y="454" width="9" height="9" fill="#14181A"><title>2025-12-23: 0 contributions</title></rect><rect x="542" y="466" width="9" height="9" fill="#C8FF4D66"><title>2025-12-24: 5 contributions</title></rect><rect x="554" y="478" width="9" height="9" fill="#14181A"><title>2025-12-25: 0 contributions</title></rect><rect x="554" y="490" width="9" height="9" fill="#14181A"><title>2025-12-26: 0 contributions</title></rect><rect x="554" y="502" width="9" height="9" fill="#C8FF4DA6"><title>2025-12-27: 6 contributions</title></rect><rect x="554" y="430" width="9" height="9" fill="#C8FF4DA6"><title>2025-12-28: 7 contributions</title></rect><rect x="554" y="442" width="9" height="9" fill="#14181A"><title>2025-12-29: 0 contributions</title></rect><rect x="554" y="454" width="9" height="9" fill="#14181A"><title>2025-12-30: 0 contributions</title></rect><rect x="554" y="466" width="9" height="9" fill="#C8FF4DA6"><title>2025-12-31: 8 contributions</title></rect><rect x="566" y="478" width="9" height="9" fill="#14181A"><title>2026-01-01: 0 contributions</title></rect><rect x="566" y="490" width="9" height="9" fill="#14181A"><title>2026-01-02: 0 contributions</title></rect><rect x="566" y="502" width="9" height="9" fill="#C8FF4DA6"><title>2026-01-03: 9 contributions</title></rect><rect x="566" y="430" width="9" height="9" fill="#14181A"><title>2026-01-04: 0 contributions</title></rect><rect x="566" y="442" width="9" height="9" fill="#14181A"><title>2026-01-05: 0 contributions</title></rect><rect x="566" y="454" width="9" height="9" fill="#C8FF4DA6"><title>2026-01-06: 9 contributions</title></rect><rect x="566" y="466" width="9" height="9" fill="#14181A"><title>2026-01-07: 0 contributions</title></rect><rect x="578" y="478" width="9" height="9" fill="#14181A"><title>2026-01-08: 0 contributions</title></rect><rect x="578" y="490" width="9" height="9" fill="#C8FF4DA6"><title>2026-01-09: 9 contributions</title></rect><rect x="578" y="502" width="9" height="9" fill="#C8FF4DA6"><title>2026-01-10: 8 contributions</title></rect><rect x="578" y="430" width="9" height="9" fill="#14181A"><title>2026-01-11: 0 contributions</title></rect><rect x="578" y="442" width="9" height="9" fill="#14181A"><title>2026-01-12: 0 contributions</title></rect><rect x="578" y="454" width="9" height="9" fill="#C8FF4DA6"><title>2026-01-13: 6 contributions</title></rect><rect x="578" y="466" width="9" height="9" fill="#14181A"><title>2026-01-14: 0 contributions</title></rect><rect x="590" y="478" width="9" height="9" fill="#14181A"><title>2026-01-15: 0 contributions</title></rect><rect x="590" y="490" width="9" height="9" fill="#C8FF4D66"><title>2026-01-16: 4 contributions</title></rect><rect x="590" y="502" width="9" height="9" fill="#14181A"><title>2026-01-17: 0 contributions</title></rect><rect x="590" y="430" width="9" height="9" fill="#14181A"><title>2026-01-18: 0 contributions</title></rect><rect x="590" y="442" width="9" height="9" fill="#C8FF4D33"><title>2026-01-19: 2 contributions</title></rect><rect x="590" y="454" width="9" height="9" fill="#14181A"><title>2026-01-20: 0 contributions</title></rect><rect x="590" y="466" width="9" height="9" fill="#14181A"><title>2026-01-21: 0 contributions</title></rect><rect x="602" y="478" width="9" height="9" fill="#C8FF4D33"><title>2026-01-22: 1 contributions</title></rect><rect x="602" y="490" width="9" height="9" fill="#C8FF4D33"><title>2026-01-23: 1 contributions</title></rect><rect x="602" y="502" width="9" height="9" fill="#14181A"><title>2026-01-24: 0 contributions</title></rect><rect x="602" y="430" width="9" height="9" fill="#14181A"><title>2026-01-25: 0 contributions</title></rect><rect x="602" y="442" width="9" height="9" fill="#C8FF4D33"><title>2026-01-26: 1 contributions</title></rect><rect x="602" y="454" width="9" height="9" fill="#14181A"><title>2026-01-27: 0 contributions</title></rect><rect x="602" y="466" width="9" height="9" fill="#14181A"><title>2026-01-28: 0 contributions</title></rect><rect x="614" y="478" width="9" height="9" fill="#C8FF4D33"><title>2026-01-29: 2 contributions</title></rect><rect x="614" y="490" width="9" height="9" fill="#14181A"><title>2026-01-30: 0 contributions</title></rect><rect x="614" y="502" width="9" height="9" fill="#14181A"><title>2026-01-31: 0 contributions</title></rect><rect x="614" y="430" width="9" height="9" fill="#C8FF4D66"><title>2026-02-01: 4 contributions</title></rect><rect x="614" y="442" width="9" height="9" fill="#14181A"><title>2026-02-02: 0 contributions</title></rect><rect x="614" y="454" width="9" height="9" fill="#14181A"><title>2026-02-03: 0 contributions</title></rect><rect x="614" y="466" width="9" height="9" fill="#C8FF4D66"><title>2026-02-04: 5 contributions</title></rect><rect x="626" y="478" width="9" height="9" fill="#C8FF4D66"><title>2026-02-05: 5 contributions</title></rect><rect x="626" y="490" width="9" height="9" fill="#14181A"><title>2026-02-06: 0 contributions</title></rect><rect x="626" y="502" width="9" height="9" fill="#14181A"><title>2026-02-07: 0 contributions</title></rect><rect x="626" y="430" width="9" height="9" fill="#C8FF4DA6"><title>2026-02-08: 6 contributions</title></rect><rect x="626" y="442" width="9" height="9" fill="#14181A"><title>2026-02-09: 0 contributions</title></rect><rect x="626" y="454" width="9" height="9" fill="#14181A"><title>2026-02-10: 0 contributions</title></rect><rect x="626" y="466" width="9" height="9" fill="#C8FF4DA6"><title>2026-02-11: 6 contributions</title></rect><rect x="638" y="478" width="9" height="9" fill="#14181A"><title>2026-02-12: 0 contributions</title></rect><rect x="638" y="490" width="9" height="9" fill="#14181A"><title>2026-02-13: 0 contributions</title></rect><rect x="638" y="502" width="9" height="9" fill="#C8FF4D66"><title>2026-02-14: 5 contributions</title></rect><rect x="638" y="430" width="9" height="9" fill="#14181A"><title>2026-02-15: 0 contributions</title></rect><rect x="638" y="442" width="9" height="9" fill="#14181A"><title>2026-02-16: 0 contributions</title></rect><rect x="638" y="454" width="9" height="9" fill="#C8FF4D66"><title>2026-02-17: 3 contributions</title></rect><rect x="638" y="466" width="9" height="9" fill="#C8FF4D66"><title>2026-02-18: 3 contributions</title></rect><rect x="650" y="478" width="9" height="9" fill="#14181A"><title>2026-02-19: 0 contributions</title></rect><rect x="650" y="490" width="9" height="9" fill="#14181A"><title>2026-02-20: 0 contributions</title></rect><rect x="650" y="502" width="9" height="9" fill="#C8FF4D33"><title>2026-02-21: 1 contributions</title></rect><rect x="650" y="430" width="9" height="9" fill="#14181A"><title>2026-02-22: 0 contributions</title></rect><rect x="650" y="442" width="9" height="9" fill="#14181A"><title>2026-02-23: 0 contributions</title></rect><rect x="650" y="454" width="9" height="9" fill="#C8FF4D33"><title>2026-02-24: 1 contributions</title></rect><rect x="650" y="466" width="9" height="9" fill="#14181A"><title>2026-02-25: 0 contributions</title></rect><rect x="662" y="478" width="9" height="9" fill="#14181A"><title>2026-02-26: 0 contributions</title></rect><rect x="662" y="490" width="9" height="9" fill="#C8FF4D33"><title>2026-02-27: 1 contributions</title></rect><rect x="662" y="502" width="9" height="9" fill="#14181A"><title>2026-02-28: 0 contributions</title></rect><rect x="662" y="430" width="9" height="9" fill="#14181A"><title>2026-03-01: 0 contributions</title></rect><rect x="662" y="442" width="9" height="9" fill="#C8FF4D33"><title>2026-03-02: 2 contributions</title></rect><rect x="662" y="454" width="9" height="9" fill="#C8FF4D66"><title>2026-03-03: 3 contributions</title></rect><rect x="662" y="466" width="9" height="9" fill="#14181A"><title>2026-03-04: 0 contributions</title></rect><rect x="674" y="478" width="9" height="9" fill="#14181A"><title>2026-03-05: 0 contributions</title></rect><rect x="674" y="490" width="9" height="9" fill="#C8FF4D66"><title>2026-03-06: 5 contributions</title></rect><rect x="674" y="502" width="9" height="9" fill="#14181A"><title>2026-03-07: 0 contributions</title></rect><rect x="674" y="430" width="9" height="9" fill="#14181A"><title>2026-03-08: 0 contributions</title></rect><rect x="674" y="442" width="9" height="9" fill="#C8FF4DA6"><title>2026-03-09: 7 contributions</title></rect><rect x="674" y="454" width="9" height="9" fill="#14181A"><title>2026-03-10: 0 contributions</title></rect><rect x="674" y="466" width="9" height="9" fill="#14181A"><title>2026-03-11: 0 contributions</title></rect><rect x="686" y="478" width="9" height="9" fill="#C8FF4DA6"><title>2026-03-12: 8 contributions</title></rect><rect x="686" y="490" width="9" height="9" fill="#14181A"><title>2026-03-13: 0 contributions</title></rect><rect x="686" y="502" width="9" height="9" fill="#14181A"><title>2026-03-14: 0 contributions</title></rect><rect x="686" y="430" width="9" height="9" fill="#C8FF4DA6"><title>2026-03-15: 9 contributions</title></rect><rect x="686" y="442" width="9" height="9" fill="#C8FF4DA6"><title>2026-03-16: 9 contributions</title></rect><rect x="686" y="454" width="9" height="9" fill="#14181A"><title>2026-03-17: 0 contributions</title></rect><rect x="686" y="466" width="9" height="9" fill="#14181A"><title>2026-03-18: 0 contributions</title></rect><rect x="698" y="478" width="9" height="9" fill="#C8FF4DA6"><title>2026-03-19: 8 contributions</title></rect><rect x="698" y="490" width="9" height="9" fill="#14181A"><title>2026-03-20: 0 contributions</title></rect><rect x="698" y="502" width="9" height="9" fill="#14181A"><title>2026-03-21: 0 contributions</title></rect><rect x="698" y="430" width="9" height="9" fill="#C8FF4DA6"><title>2026-03-22: 7 contributions</title></rect><rect x="698" y="442" width="9" height="9" fill="#14181A"><title>2026-03-23: 0 contributions</title></rect><rect x="698" y="454" width="9" height="9" fill="#14181A"><title>2026-03-24: 0 contributions</title></rect><rect x="698" y="466" width="9" height="9" fill="#C8FF4DA6"><title>2026-03-25: 6 contributions</title></rect><rect x="710" y="478" width="9" height="9" fill="#14181A"><title>2026-03-26: 0 contributions</title></rect><rect x="710" y="490" width="9" height="9" fill="#14181A"><title>2026-03-27: 0 contributions</title></rect><rect x="710" y="502" width="9" height="9" fill="#C8FF4D66"><title>2026-03-28: 5 contributions</title></rect><rect x="710" y="430" width="9" height="9" fill="#C8FF4D66"><title>2026-03-29: 5 contributions</title></rect><rect x="710" y="442" width="9" height="9" fill="#14181A"><title>2026-03-30: 0 contributions</title></rect><rect x="710" y="454" width="9" height="9" fill="#14181A"><title>2026-03-31: 0 contributions</title></rect><rect x="710" y="466" width="9" height="9" fill="#C8FF4D66"><title>2026-04-01: 5 contributions</title></rect><rect x="722" y="478" width="9" height="9" fill="#14181A"><title>2026-04-02: 0 contributions</title></rect><rect x="722" y="490" width="9" height="9" fill="#14181A"><title>2026-04-03: 0 contributions</title></rect><rect x="722" y="502" width="9" height="9" fill="#C8FF4DA6"><title>2026-04-04: 6 contributions</title></rect><rect x="722" y="430" width="9" height="9" fill="#14181A"><title>2026-04-05: 0 contributions</title></rect><rect x="722" y="442" width="9" height="9" fill="#14181A"><title>2026-04-06: 0 contributions</title></rect><rect x="722" y="454" width="9" height="9" fill="#C8FF4DA6"><title>2026-04-07: 8 contributions</title></rect><rect x="722" y="466" width="9" height="9" fill="#14181A"><title>2026-04-08: 0 contributions</title></rect><rect x="734" y="478" width="9" height="9" fill="#14181A"><title>2026-04-09: 0 contributions</title></rect><rect x="734" y="490" width="9" height="9" fill="#C8FF4D"><title>2026-04-10: 10 contributions</title></rect><rect x="734" y="502" width="9" height="9" fill="#C8FF4D"><title>2026-04-11: 11 contributions</title></rect><rect x="734" y="430" width="9" height="9" fill="#14181A"><title>2026-04-12: 0 contributions</title></rect><rect x="734" y="442" width="9" height="9" fill="#14181A"><title>2026-04-13: 0 contributions</title></rect><rect x="734" y="454" width="9" height="9" fill="#C8FF4D"><title>2026-04-14: 12 contributions</title></rect><rect x="734" y="466" width="9" height="9" fill="#14181A"><title>2026-04-15: 0 contributions</title></rect><rect x="746" y="478" width="9" height="9" fill="#14181A"><title>2026-04-16: 0 contributions</title></rect><rect x="746" y="490" width="9" height="9" fill="#C8FF4D"><title>2026-04-17: 12 contributions</title></rect><rect x="746" y="502" width="9" height="9" fill="#14181A"><title>2026-04-18: 0 contributions</title></rect><rect x="746" y="430" width="9" height="9" fill="#14181A"><title>2026-04-19: 0 contributions</title></rect><rect x="746" y="442" width="9" height="9" fill="#C8FF4D"><title>2026-04-20: 11 contributions</title></rect><rect x="746" y="454" width="9" height="9" fill="#14181A"><title>2026-04-21: 0 contributions</title></rect><rect x="746" y="466" width="9" height="9" fill="#14181A"><title>2026-04-22: 0 contributions</title></rect><rect x="758" y="478" width="9" height="9" fill="#C8FF4D"><title>2026-04-23: 10 contributions</title></rect><rect x="758" y="490" width="9" height="9" fill="#C8FF4DA6"><title>2026-04-24: 9 contributions</title></rect><rect x="758" y="502" width="9" height="9" fill="#14181A"><title>2026-04-25: 0 contributions</title></rect><rect x="758" y="430" width="9" height="9" fill="#14181A"><title>2026-04-26: 0 contributions</title></rect><rect x="758" y="442" width="9" height="9" fill="#C8FF4DA6"><title>2026-04-27: 7 contributions</title></rect><rect x="758" y="454" width="9" height="9" fill="#14181A"><title>2026-04-28: 0 contributions</title></rect><rect x="758" y="466" width="9" height="9" fill="#14181A"><title>2026-04-29: 0 contributions</title></rect><rect x="770" y="478" width="9" height="9" fill="#C8FF4DA6"><title>2026-04-30: 6 contributions</title></rect><rect x="770" y="490" width="9" height="9" fill="#14181A"><title>2026-05-01: 0 contributions</title></rect><rect x="770" y="502" width="9" height="9" fill="#14181A"><title>2026-05-02: 0 contributions</title></rect><rect x="770" y="430" width="9" height="9" fill="#C8FF4D66"><title>2026-05-03: 5 contributions</title></rect><rect x="770" y="442" width="9" height="9" fill="#14181A"><title>2026-05-04: 0 contributions</title></rect><rect x="770" y="454" width="9" height="9" fill="#14181A"><title>2026-05-05: 0 contributions</title></rect><rect x="770" y="466" width="9" height="9" fill="#C8FF4DA6"><title>2026-05-06: 6 contributions</title></rect><rect x="782" y="478" width="9" height="9" fill="#C8FF4DA6"><title>2026-05-07: 6 contributions</title></rect><rect x="782" y="490" width="9" height="9" fill="#14181A"><title>2026-05-08: 0 contributions</title></rect><rect x="782" y="502" width="9" height="9" fill="#14181A"><title>2026-05-09: 0 contributions</title></rect><rect x="782" y="430" width="9" height="9" fill="#C8FF4DA6"><title>2026-05-10: 7 contributions</title></rect><rect x="782" y="442" width="9" height="9" fill="#14181A"><title>2026-05-11: 0 contributions</title></rect><rect x="782" y="454" width="9" height="9" fill="#14181A"><title>2026-05-12: 0 contributions</title></rect><rect x="782" y="466" width="9" height="9" fill="#C8FF4DA6"><title>2026-05-13: 8 contributions</title></rect><rect x="794" y="478" width="9" height="9" fill="#14181A"><title>2026-05-14: 0 contributions</title></rect><rect x="794" y="490" width="9" height="9" fill="#14181A"><title>2026-05-15: 0 contributions</title></rect><rect x="794" y="502" width="9" height="9" fill="#C8FF4DA6"><title>2026-05-16: 9 contributions</title></rect><rect x="794" y="430" width="9" height="9" fill="#14181A"><title>2026-05-17: 0 contributions</title></rect><rect x="794" y="442" width="9" height="9" fill="#14181A"><title>2026-05-18: 0 contributions</title></rect><rect x="794" y="454" width="9" height="9" fill="#C8FF4DA6"><title>2026-05-19: 9 contributions</title></rect><rect x="794" y="466" width="9" height="9" fill="#C8FF4DA6"><title>2026-05-20: 9 contributions</title></rect><rect x="806" y="478" width="9" height="9" fill="#14181A"><title>2026-05-21: 0 contributions</title></rect><rect x="806" y="490" width="9" height="9" fill="#14181A"><title>2026-05-22: 0 contributions</title></rect><rect x="806" y="502" width="9" height="9" fill="#C8FF4DA6"><title>2026-05-23: 8 contributions</title></rect><rect x="806" y="430" width="9" height="9" fill="#14181A"><title>2026-05-24: 0 contributions</title></rect><rect x="806" y="442" width="9" height="9" fill="#14181A"><title>2026-05-25: 0 contributions</title></rect><rect x="806" y="454" width="9" height="9" fill="#C8FF4DA6"><title>2026-05-26: 6 contributions</title></rect><rect x="806" y="466" width="9" height="9" fill="#14181A"><title>2026-05-27: 0 contributions</title></rect><rect x="818" y="478" width="9" height="9" fill="#14181A"><title>2026-05-28: 0 contributions</title></rect><rect x="818" y="490" width="9" height="9" fill="#C8FF4D66"><title>2026-05-29: 4 contributions</title></rect><rect x="818" y="502" width="9" height="9" fill="#14181A"><title>2026-05-30: 0 contributions</title></rect><rect x="818" y="430" width="9" height="9" fill="#14181A"><title>2026-05-31: 0 contributions</title></rect><rect x="818" y="442" width="9" height="9" fill="#C8FF4D33"><title>2026-06-01: 2 contributions</title></rect><rect x="818" y="454" width="9" height="9" fill="#C8FF4D33"><title>2026-06-02: 2 contributions</title></rect><rect x="818" y="466" width="9" height="9" fill="#14181A"><title>2026-06-03: 0 contributions</title></rect><rect x="830" y="478" width="9" height="9" fill="#14181A"><title>2026-06-04: 0 contributions</title></rect><rect x="830" y="490" width="9" height="9" fill="#C8FF4D33"><title>2026-06-05: 1 contributions</title></rect><rect x="830" y="502" width="9" height="9" fill="#14181A"><title>2026-06-06: 0 contributions</title></rect><rect x="830" y="430" width="9" height="9" fill="#14181A"><title>2026-06-07: 0 contributions</title></rect><rect x="830" y="442" width="9" height="9" fill="#C8FF4D33"><title>2026-06-08: 1 contributions</title></rect><rect x="830" y="454" width="9" height="9" fill="#14181A"><title>2026-06-09: 0 contributions</title></rect><rect x="830" y="466" width="9" height="9" fill="#14181A"><title>2026-06-10: 0 contributions</title></rect><rect x="842" y="478" width="9" height="9" fill="#C8FF4D66"><title>2026-06-11: 3 contributions</title></rect><rect x="842" y="490" width="9" height="9" fill="#14181A"><title>2026-06-12: 0 contributions</title></rect><rect x="842" y="502" width="9" height="9" fill="#14181A"><title>2026-06-13: 0 contributions</title></rect><rect x="842" y="430" width="9" height="9" fill="#C8FF4D66"><title>2026-06-14: 4 contributions</title></rect><rect x="842" y="442" width="9" height="9" fill="#C8FF4D66"><title>2026-06-15: 5 contributions</title></rect><rect x="842" y="454" width="9" height="9" fill="#14181A"><title>2026-06-16: 0 contributions</title></rect><rect x="842" y="466" width="9" height="9" fill="#14181A"><title>2026-06-17: 0 contributions</title></rect><rect x="854" y="478" width="9" height="9" fill="#C8FF4DA6"><title>2026-06-18: 6 contributions</title></rect><rect x="854" y="490" width="9" height="9" fill="#14181A"><title>2026-06-19: 0 contributions</title></rect><rect x="854" y="502" width="9" height="9" fill="#14181A"><title>2026-06-20: 0 contributions</title></rect><rect x="854" y="430" width="9" height="9" fill="#C8FF4DA6"><title>2026-06-21: 6 contributions</title></rect><rect x="854" y="442" width="9" height="9" fill="#14181A"><title>2026-06-22: 0 contributions</title></rect><rect x="854" y="454" width="9" height="9" fill="#14181A"><title>2026-06-23: 0 contributions</title></rect><rect x="854" y="466" width="9" height="9" fill="#C8FF4DA6"><title>2026-06-24: 6 contributions</title></rect><rect x="866" y="478" width="9" height="9" fill="#14181A"><title>2026-06-25: 0 contributions</title></rect><rect x="866" y="490" width="9" height="9" fill="#14181A"><title>2026-06-26: 0 contributions</title></rect><rect x="866" y="502" width="9" height="9" fill="#C8FF4D66"><title>2026-06-27: 4 contributions</title></rect><rect x="866" y="430" width="9" height="9" fill="#C8FF4D66"><title>2026-06-28: 4 contributions</title></rect><rect x="866" y="442" width="9" height="9" fill="#14181A"><title>2026-06-29: 0 contributions</title></rect><rect x="866" y="454" width="9" height="9" fill="#14181A"><title>2026-06-30: 0 contributions</title></rect><rect x="866" y="466" width="9" height="9" fill="#C8FF4D33"><title>2026-07-01: 2 contributions</title></rect><rect x="878" y="478" width="9" height="9" fill="#14181A"><title>2026-07-02: 0 contributions</title></rect><rect x="878" y="490" width="9" height="9" fill="#14181A"><title>2026-07-03: 0 contributions</title></rect><rect x="878" y="502" width="9" height="9" fill="#C8FF4D33"><title>2026-07-04: 1 contributions</title></rect><rect x="878" y="430" width="9" height="9" fill="#14181A"><title>2026-07-05: 0 contributions</title></rect><rect x="878" y="442" width="9" height="9" fill="#14181A"><title>2026-07-06: 0 contributions</title></rect><rect x="878" y="454" width="9" height="9" fill="#C8FF4D33"><title>2026-07-07: 1 contributions</title></rect><rect x="878" y="466" width="9" height="9" fill="#14181A"><title>2026-07-08: 0 contributions</title></rect><rect x="890" y="478" width="9" height="9" fill="#14181A"><title>2026-07-09: 0 contributions</title></rect><rect x="890" y="490" width="9" height="9" fill="#C8FF4D33"><title>2026-07-10: 1 contributions</title></rect><rect x="890" y="502" width="9" height="9" fill="#C8FF4D33"><title>2026-07-11: 2 contributions</title></rect><rect x="890" y="430" width="9" height="9" fill="#14181A"><title>2026-07-12: 0 contributions</title></rect><rect x="890" y="442" width="9" height="9" fill="#14181A"><title>2026-07-13: 0 contributions</title></rect><rect x="890" y="454" width="9" height="9" fill="#C8FF4D66"><title>2026-07-14: 3 contributions</title></rect><rect x="890" y="466" width="9" height="9" fill="#14181A"><title>2026-07-15: 0 contributions</title></rect><rect x="902" y="478" width="9" height="9" fill="#14181A"><title>2026-07-16: 0 contributions</title></rect><rect x="902" y="490" width="9" height="9" fill="#C8FF4D66"><title>2026-07-17: 5 contributions</title></rect><rect x="902" y="502" width="9" height="9" fill="#14181A"><title>2026-07-18: 0 contributions</title></rect><rect x="902" y="430" width="9" height="9" fill="#14181A"><title>2026-07-19: 0 contributions</title></rect><rect x="902" y="442" width="9" height="9" fill="#C8FF4DA6"><title>2026-07-20: 7 contributions</title></rect><rect x="902" y="454" width="9" height="9" fill="#14181A"><title>2026-07-21: 0 contributions</title></rect><rect x="902" y="466" width="9" height="9" fill="#14181A"><title>2026-07-22: 0 contributions</title></rect>
    <line x1="42" y1="526" x2="1058" y2="526" stroke="#2B302D"/>
    <polyline points="44.0,554.0 48.0,553.0 52.0,551.9 56.0,550.9 60.0,550.1 64.0,549.6 68.0,549.4 72.0,549.7 76.0,550.5 80.0,551.6 84.0,553.0 88.0,554.6 92.0,556.2 96.0,557.8 100.0,559.0 104.0,559.9 108.0,560.3 112.0,560.2 116.0,559.7 120.0,558.8 124.0,557.7 128.0,556.5 132.0,555.4 136.0,554.6 140.0,554.2 144.0,554.3 148.0,555.0 152.0,556.3 156.0,558.1 160.0,560.2 164.0,562.5 168.0,564.7 172.0,566.7 176.0,568.1 180.0,568.9 184.0,569.0 188.0,568.3 192.0,566.9 196.0,564.9 200.0,562.5 204.0,560.0 208.0,557.5 212.0,555.4 216.0,553.9 220.0,553.0 224.0,552.9 228.0,553.5 232.0,554.8 236.0,556.5 240.0,558.4 244.0,560.3 248.0,561.8 252.0,562.7 256.0,562.9 260.0,562.1 264.0,560.4 268.0,557.9 272.0,554.7 276.0,551.2 280.0,547.5 284.0,544.1 288.0,541.3 292.0,539.2 296.0,538.2 300.0,538.2 304.0,539.3 308.0,541.3 312.0,544.0 316.0,547.1 320.0,550.2 324.0,553.0 328.0,555.2 332.0,556.5 336.0,556.8 340.0,556.0 344.0,554.3 348.0,551.9 352.0,549.1 356.0,546.2 360.0,543.6 364.0,541.6 368.0,540.7 372.0,541.0 376.0,542.5 380.0,545.3 384.0,549.1 388.0,553.7 392.0,558.6" stroke="#C8FF4D" stroke-width="1.5" fill="none" opacity=".9"/>
    <text x="1058" y="560" text-anchor="end" class="mono micro">THE INTERFACE IS ALIVE / GITHUB.COM/LUAN-THNH</text>
  
</svg>